<svg xmlns="http://www.w3.org/2000/svg" version="1.1" xmlns:xlink="http://www.w3.org/1999/xlink"
  xmlns:svgjs="http://svgjs.dev/svgjs" viewBox="-50 -50 2700 1200" width="2700" height="1200">
  <g stroke-width="1" stroke="hsl(203, 30%, 50%)" fill="none">
    <rect width="100" height="200" x="0" y="0"></rect>
    <rect width="100" height="200" x="100" y="0"></rect>
    <rect width="100" height="200" x="200" y="0"></rect>
    <rect width="100" height="200" x="300" y="0"></rect>
    <rect width="100" height="200" x="400" y="0"></rect>
    <rect width="100" height="200" x="0" y="200"></rect>
    <rect width="100" height="200" x="100" y="200"></rect>
    <rect width="100" height="200" x="200" y="200"></rect>
    <rect width="100" height="200" x="300" y="200"></rect>
    <rect width="100" height="200" x="400" y="200"></rect>
    <rect width="100" height="200" x="0" y="400"></rect>
    <rect width="100" height="200" x="100" y="400"></rect>
    <rect width="100" height="200" x="200" y="400"></rect>
    <rect width="100" height="200" x="300" y="400"></rect>
    <rect width="100" height="200" x="400" y="400"></rect>
    <rect width="100" height="200" x="0" y="600"></rect>
    <rect width="100" height="200" x="100" y="600"></rect>
    <rect width="100" height="200" x="200" y="600"></rect>
    <rect width="100" height="200" x="300" y="600"></rect>
    <rect width="100" height="200" x="400" y="600"></rect>
    <rect width="100" height="200" x="0" y="800"></rect>
    <rect width="100" height="200" x="100" y="800"></rect>
    <rect width="100" height="200" x="200" y="800"></rect>
    <rect width="100" height="200" x="300" y="800"></rect>
    <rect width="100" height="200" x="400" y="800"></rect>
  </g>
  <g>
    <rect fill="hsla(203, 50%, 65%, 1.00)" width="500" height="200" x="0"
      y="0"></rect>
    <text x="250" y="100" dominant-baseline="middle" text-anchor="middle"
      font-size="70" font-family="sans-serif">A (5)</text>
  </g>
  <g>
    <rect fill="hsla(275, 50%, 65%, 1.00)" width="200" height="200" x="0"
      y="200"></rect>
    <text x="100" y="300" dominant-baseline="middle" text-anchor="middle"
      font-size="70" font-family="sans-serif">B (2)</text>
  </g>
  <g>
    <rect fill="hsla(347, 50%, 65%, 1.00)" width="100" height="200" x="0"
      y="400"></rect>
    <text x="50" y="500" dominant-baseline="middle" text-anchor="middle"
      font-size="40" font-family="sans-serif">C (1)</text>
  </g>
  <g>
    <rect fill="hsla(59, 50%, 65%, 1.00)" width="300" height="200" x="0"
      y="600"></rect>
    <text x="150" y="700" dominant-baseline="middle" text-anchor="middle"
      font-size="70" font-family="sans-serif">D (3)</text>
  </g>
  <g>
    <rect fill="hsla(131, 50%, 65%, 1.00)" width="100" height="200" x="0"
      y="800"></rect>
    <text x="50" y="900" dominant-baseline="middle" text-anchor="middle"
      font-size="40" font-family="sans-serif">E (1)</text>
  </g>
</svg>