<?xml version="1.0" encoding="utf-8"?>
<!DOCTYPE svg PUBLIC "-//W3C//DTD SVG 1.1//EN" "http://www.w3.org/Graphics/SVG/1.1/DTD/svg11.dtd">
<svg version="1.1" xmlns="http://www.w3.org/2000/svg" xmlns:xlink="http://www.w3.org/1999/xlink" xmlns:xml="http://www.w3.org/XML/1998/namespace" width="410.2666" height="370" viewBox="-205.13329, -185, 410.26657, 370">
  <polygon points="-166.2769,-16 -152.4205,-8 -152.4205,8 -166.2769,16 -180.1333,8 -180.1333,-8" style="fill:white;" />
  <polygon points="-152.4205,8 -138.5641,16 -138.5641,32 -152.4205,40 -166.2769,32 -166.2769,16" style="fill:white;" />
  <polygon points="-138.5641,32 -124.7076,40 -124.7076,56 -138.5641,64 -152.4205,56 -152.4205,40" style="fill:white;" />
  <polygon points="-124.7077,56 -110.8512,64 -110.8512,80 -124.7077,88 -138.5641,80 -138.5641,64" style="fill:white;" />
  <polygon points="-110.8512,80 -96.99483,88 -96.99483,104 -110.8512,112 -124.7076,104 -124.7076,88" style="fill:white;" />
  <polygon points="-96.99484,104 -83.13844,112 -83.13844,128 -96.99484,136 -110.8512,128 -110.8512,112" style="fill:white;" />
  <polygon points="-83.13844,128 -69.28203,136 -69.28203,152 -83.13844,160 -96.99484,152 -96.99484,136" style="fill:white;" />
  <polygon points="-152.4205,-40 -138.5641,-32 -138.5641,-16 -152.4205,-8 -166.2769,-16 -166.2769,-32" style="fill:white;" />
  <polygon points="-138.5641,-16 -124.7076,-8 -124.7076,8 -138.5641,16 -152.4205,8 -152.4205,-8" style="fill:white;" />
  <polygon points="-124.7076,8 -110.8512,16 -110.8512,32 -124.7076,40 -138.5641,32 -138.5641,16" style="fill:white;" />
  <polygon points="-110.8512,32 -96.99483,40 -96.99483,56 -110.8512,64 -124.7076,56 -124.7076,40" style="fill:white;" />
  <polygon points="-96.99484,56 -83.13844,64 -83.13844,80 -96.99484,88 -110.8512,80 -110.8512,64" style="fill:white;" />
  <polygon points="-83.13843,80 -69.28202,88 -69.28202,104 -83.13843,112 -96.99483,104 -96.99483,88" style="fill:white;" />
  <polygon points="-69.28203,104 -55.42562,112 -55.42562,128 -69.28203,136 -83.13844,128 -83.13844,112" style="fill:white;" />
  <polygon points="-55.42562,128 -41.56921,136 -41.56921,152 -55.42562,160 -69.28203,152 -69.28203,136" style="fill:white;" />
  <polygon points="-138.5641,-64 -124.7076,-56 -124.7076,-40 -138.5641,-32 -152.4205,-40 -152.4205,-56" style="fill:white;" />
  <polygon points="-124.7077,-40 -110.8512,-32 -110.8512,-16 -124.7077,-8 -138.5641,-16 -138.5641,-32" style="fill:white;" />
  <polygon points="-110.8512,-16 -96.99484,-8 -96.99484,8 -110.8512,16 -124.7077,8 -124.7077,-8" style="fill:white;" />
  <polygon points="-96.99484,8 -83.13844,16 -83.13844,32 -96.99484,40 -110.8512,32 -110.8512,16" style="fill:white;" />
  <polygon points="-83.13844,32 -69.28203,40 -69.28203,56 -83.13844,64 -96.99484,56 -96.99484,40" style="fill:white;" />
  <polygon points="-69.28203,56 -55.42562,64 -55.42562,80 -69.28203,88 -83.13844,80 -83.13844,64" style="fill:white;" />
  <polygon points="-55.42562,80 -41.56922,88 -41.56922,104 -55.42562,112 -69.28203,104 -69.28203,88" style="fill:white;" />
  <polygon points="-41.56922,104 -27.71281,112 -27.71281,128 -41.56922,136 -55.42563,128 -55.42563,112" style="fill:white;" />
  <polygon points="-27.71281,128 -13.85641,136 -13.85641,152 -27.71281,160 -41.56922,152 -41.56922,136" style="fill:white;" />
  <polygon points="-124.7077,-88 -110.8512,-80 -110.8512,-64 -124.7077,-56 -138.5641,-64 -138.5641,-80" style="fill:white;" />
  <polygon points="-110.8512,-64 -96.99484,-56 -96.99484,-40 -110.8512,-32 -124.7077,-40 -124.7077,-56" style="fill:white;" />
  <polygon points="-96.99484,-40 -83.13844,-32 -83.13844,-16 -96.99484,-8 -110.8512,-16 -110.8512,-32" style="fill:white;" />
  <polygon points="-83.13844,-16 -69.28203,-8 -69.28203,8 -83.13844,16 -96.99484,8 -96.99484,-8" style="fill:white;" />
  <polygon points="-69.28203,8 -55.42562,16 -55.42562,32 -69.28203,40 -83.13844,32 -83.13844,16" style="fill:white;" />
  <polygon points="-55.42562,32 -41.56921,40 -41.56921,56 -55.42562,64 -69.28203,56 -69.28203,40" style="fill:white;" />
  <polygon points="-41.56922,56 -27.71281,64 -27.71281,80 -41.56922,88 -55.42562,80 -55.42562,64" style="fill:white;" />
  <polygon points="-27.71281,80 -13.8564,88 -13.8564,104 -27.71281,112 -41.56922,104 -41.56922,88" style="fill:white;" />
  <polygon points="-13.85641,104 -9.536743E-07,112 -9.536743E-07,128 -13.85641,136 -27.71281,128 -27.71281,112" style="fill:white;" />
  <polygon points="0,128 13.85641,136 13.85641,152 0,160 -13.85641,152 -13.85641,136" style="fill:white;" />
  <polygon points="-110.8512,-112 -96.99484,-104 -96.99484,-88 -110.8512,-80 -124.7077,-88 -124.7077,-104" style="fill:white;" />
  <polygon points="-96.99484,-88 -83.13844,-80 -83.13844,-64 -96.99484,-56 -110.8512,-64 -110.8512,-80" style="fill:white;" />
  <polygon points="-83.13844,-64 -69.28203,-56 -69.28203,-40 -83.13844,-32 -96.99484,-40 -96.99484,-56" style="fill:white;" />
  <polygon points="-69.28203,-40 -55.42562,-32 -55.42562,-16 -69.28203,-8 -83.13844,-16 -83.13844,-32" style="fill:white;" />
  <polygon points="-55.42562,-16 -41.56922,-8 -41.56922,8 -55.42562,16 -69.28203,8 -69.28203,-8" style="fill:white;" />
  <polygon points="-41.56922,8 -27.71281,16 -27.71281,32 -41.56922,40 -55.42562,32 -55.42562,16" style="fill:white;" />
  <polygon points="-27.71281,32 -13.85641,40 -13.85641,56 -27.71281,64 -41.56922,56 -41.56922,40" style="fill:white;" />
  <polygon points="-13.85641,56 -9.536743E-07,64 -9.536743E-07,80 -13.85641,88 -27.71281,80 -27.71281,64" style="fill:white;" />
  <polygon points="0,80 13.85641,88 13.85641,104 0,112 -13.85641,104 -13.85641,88" style="fill:white;" />
  <polygon points="13.8564,104 27.71281,112 27.71281,128 13.8564,136 -2.861023E-06,128 -2.861023E-06,112" style="fill:white;" />
  <polygon points="27.71281,128 41.56922,136 41.56922,152 27.71281,160 13.8564,152 13.8564,136" style="fill:white;" />
  <polygon points="-96.99484,-136 -83.13844,-128 -83.13844,-112 -96.99484,-104 -110.8512,-112 -110.8512,-128" style="fill:white;" />
  <polygon points="-83.13844,-112 -69.28203,-104 -69.28203,-88 -83.13844,-80 -96.99484,-88 -96.99484,-104" style="fill:white;" />
  <polygon points="-69.28203,-88 -55.42562,-80 -55.42562,-64 -69.28203,-56 -83.13844,-64 -83.13844,-80" style="fill:white;" />
  <polygon points="-55.42562,-64 -41.56922,-56 -41.56922,-40 -55.42562,-32 -69.28203,-40 -69.28203,-56" style="fill:white;" />
  <polygon points="-41.56922,-40 -27.71281,-32 -27.71281,-16 -41.56922,-8 -55.42562,-16 -55.42562,-32" style="fill:white;" />
  <polygon points="-27.71281,-16 -13.85641,-8 -13.85641,8 -27.71281,16 -41.56922,8 -41.56922,-8" style="fill:white;" />
  <polygon points="-13.85641,8 0,16 0,32 -13.85641,40 -27.71281,32 -27.71281,16" style="fill:white;" />
  <polygon points="0,32 13.85641,40 13.85641,56 0,64 -13.85641,56 -13.85641,40" style="fill:white;" />
  <polygon points="13.85641,56 27.71281,64 27.71281,80 13.85641,88 -9.536743E-07,80 -9.536743E-07,64" style="fill:white;" />
  <polygon points="27.71281,80 41.56922,88 41.56922,104 27.71281,112 13.85641,104 13.85641,88" style="fill:white;" />
  <polygon points="41.56921,104 55.42562,112 55.42562,128 41.56921,136 27.71281,128 27.71281,112" style="fill:white;" />
  <polygon points="55.42562,128 69.28203,136 69.28203,152 55.42562,160 41.56921,152 41.56921,136" style="fill:white;" />
  <polygon points="-83.13844,-160 -69.28203,-152 -69.28203,-136 -83.13844,-128 -96.99484,-136 -96.99484,-152" style="fill:white;" />
  <polygon points="-69.28203,-136 -55.42562,-128 -55.42562,-112 -69.28203,-104 -83.13844,-112 -83.13844,-128" style="fill:white;" />
  <polygon points="-55.42562,-112 -41.56922,-104 -41.56922,-88 -55.42562,-80 -69.28203,-88 -69.28203,-104" style="fill:white;" />
  <polygon points="-41.56922,-88 -27.71281,-80 -27.71281,-64 -41.56922,-56 -55.42562,-64 -55.42562,-80" style="fill:white;" />
  <polygon points="-27.71281,-64 -13.85641,-56 -13.85641,-40 -27.71281,-32 -41.56922,-40 -41.56922,-56" style="fill:white;" />
  <polygon points="-13.85641,-40 0,-32 0,-16 -13.85641,-8 -27.71281,-16 -27.71281,-32" style="fill:white;" />
  <polygon points="0,-16 13.85641,-8 13.85641,8 0,16 -13.85641,8 -13.85641,-8" style="fill:white;" />
  <polygon points="13.85641,8 27.71281,16 27.71281,32 13.85641,40 0,32 0,16" style="fill:white;" />
  <polygon points="27.71281,32 41.56922,40 41.56922,56 27.71281,64 13.85641,56 13.85641,40" style="fill:white;" />
  <polygon points="41.56922,56 55.42562,64 55.42562,80 41.56922,88 27.71281,80 27.71281,64" style="fill:white;" />
  <polygon points="55.42562,80 69.28203,88 69.28203,104 55.42562,112 41.56922,104 41.56922,88" style="fill:white;" />
  <polygon points="69.28203,104 83.13844,112 83.13844,128 69.28203,136 55.42562,128 55.42562,112" style="fill:white;" />
  <polygon points="83.13844,128 96.99484,136 96.99484,152 83.13844,160 69.28203,152 69.28203,136" style="fill:white;" />
  <polygon points="-55.42562,-160 -41.56921,-152 -41.56921,-136 -55.42562,-128 -69.28203,-136 -69.28203,-152" style="fill:white;" />
  <polygon points="-41.56921,-136 -27.71281,-128 -27.71281,-112 -41.56921,-104 -55.42562,-112 -55.42562,-128" style="fill:white;" />
  <polygon points="-27.71281,-112 -13.85641,-104 -13.85641,-88 -27.71281,-80 -41.56922,-88 -41.56922,-104" style="fill:white;" />
  <polygon points="-13.85641,-88 9.536743E-07,-80 9.536743E-07,-64 -13.85641,-56 -27.71281,-64 -27.71281,-80" style="fill:white;" />
  <polygon points="0,-64 13.85641,-56 13.85641,-40 0,-32 -13.85641,-40 -13.85641,-56" style="fill:white;" />
  <polygon points="13.85641,-40 27.71281,-32 27.71281,-16 13.85641,-8 0,-16 0,-32" style="fill:white;" />
  <polygon points="27.71281,-16 41.56922,-8 41.56922,8 27.71281,16 13.85641,8 13.85641,-8" style="fill:white;" />
  <polygon points="41.56922,8 55.42562,16 55.42562,32 41.56922,40 27.71281,32 27.71281,16" style="fill:white;" />
  <polygon points="55.42562,32 69.28203,40 69.28203,56 55.42562,64 41.56922,56 41.56922,40" style="fill:white;" />
  <polygon points="69.28203,56 83.13844,64 83.13844,80 69.28203,88 55.42562,80 55.42562,64" style="fill:white;" />
  <polygon points="83.13844,80 96.99484,88 96.99484,104 83.13844,112 69.28203,104 69.28203,88" style="fill:white;" />
  <polygon points="96.99484,104 110.8512,112 110.8512,128 96.99484,136 83.13844,128 83.13844,112" style="fill:white;" />
  <polygon points="-27.71281,-160 -13.8564,-152 -13.8564,-136 -27.71281,-128 -41.56922,-136 -41.56922,-152" style="fill:white;" />
  <polygon points="-13.8564,-136 2.861023E-06,-128 2.861023E-06,-112 -13.8564,-104 -27.71281,-112 -27.71281,-128" style="fill:white;" />
  <polygon points="0,-112 13.85641,-104 13.85641,-88 0,-80 -13.85641,-88 -13.85641,-104" style="fill:white;" />
  <polygon points="13.85641,-88 27.71281,-80 27.71281,-64 13.85641,-56 9.536743E-07,-64 9.536743E-07,-80" style="fill:white;" />
  <polygon points="27.71281,-64 41.56922,-56 41.56922,-40 27.71281,-32 13.85641,-40 13.85641,-56" style="fill:white;" />
  <polygon points="41.56922,-40 55.42562,-32 55.42562,-16 41.56922,-8 27.71281,-16 27.71281,-32" style="fill:white;" />
  <polygon points="55.42562,-16 69.28203,-8 69.28203,8 55.42562,16 41.56922,8 41.56922,-8" style="fill:white;" />
  <polygon points="69.28203,8 83.13844,16 83.13844,32 69.28203,40 55.42562,32 55.42562,16" style="fill:white;" />
  <polygon points="83.13844,32 96.99484,40 96.99484,56 83.13844,64 69.28203,56 69.28203,40" style="fill:white;" />
  <polygon points="96.99484,56 110.8512,64 110.8512,80 96.99484,88 83.13844,80 83.13844,64" style="fill:white;" />
  <polygon points="110.8512,80 124.7077,88 124.7077,104 110.8512,112 96.99484,104 96.99484,88" style="fill:white;" />
  <polygon points="0,-160 13.85641,-152 13.85641,-136 0,-128 -13.85641,-136 -13.85641,-152" style="fill:white;" />
  <polygon points="13.85641,-136 27.71281,-128 27.71281,-112 13.85641,-104 9.536743E-07,-112 9.536743E-07,-128" style="fill:white;" />
  <polygon points="27.71281,-112 41.56922,-104 41.56922,-88 27.71281,-80 13.8564,-88 13.8564,-104" style="fill:white;" />
  <polygon points="41.56922,-88 55.42562,-80 55.42562,-64 41.56922,-56 27.71281,-64 27.71281,-80" style="fill:white;" />
  <polygon points="55.42562,-64 69.28203,-56 69.28203,-40 55.42562,-32 41.56921,-40 41.56921,-56" style="fill:white;" />
  <polygon points="69.28203,-40 83.13844,-32 83.13844,-16 69.28203,-8 55.42562,-16 55.42562,-32" style="fill:white;" />
  <polygon points="83.13844,-16 96.99484,-8 96.99484,8 83.13844,16 69.28203,8 69.28203,-8" style="fill:white;" />
  <polygon points="96.99484,8 110.8512,16 110.8512,32 96.99484,40 83.13844,32 83.13844,16" style="fill:white;" />
  <polygon points="110.8512,32 124.7077,40 124.7077,56 110.8512,64 96.99484,56 96.99484,40" style="fill:white;" />
  <polygon points="124.7077,56 138.5641,64 138.5641,80 124.7077,88 110.8512,80 110.8512,64" style="fill:white;" />
  <polygon points="27.71281,-160 41.56922,-152 41.56922,-136 27.71281,-128 13.85641,-136 13.85641,-152" style="fill:white;" />
  <polygon points="41.56922,-136 55.42563,-128 55.42563,-112 41.56922,-104 27.71281,-112 27.71281,-128" style="fill:white;" />
  <polygon points="55.42562,-112 69.28203,-104 69.28203,-88 55.42562,-80 41.56922,-88 41.56922,-104" style="fill:white;" />
  <polygon points="69.28203,-88 83.13844,-80 83.13844,-64 69.28203,-56 55.42562,-64 55.42562,-80" style="fill:white;" />
  <polygon points="83.13844,-64 96.99484,-56 96.99484,-40 83.13844,-32 69.28203,-40 69.28203,-56" style="fill:white;" />
  <polygon points="96.99484,-40 110.8512,-32 110.8512,-16 96.99484,-8 83.13844,-16 83.13844,-32" style="fill:white;" />
  <polygon points="110.8512,-16 124.7077,-8 124.7077,8 110.8512,16 96.99484,8 96.99484,-8" style="fill:white;" />
  <polygon points="124.7077,8 138.5641,16 138.5641,32 124.7077,40 110.8512,32 110.8512,16" style="fill:white;" />
  <polygon points="138.5641,32 152.4205,40 152.4205,56 138.5641,64 124.7076,56 124.7076,40" style="fill:white;" />
  <polygon points="55.42562,-160 69.28203,-152 69.28203,-136 55.42562,-128 41.56921,-136 41.56921,-152" style="fill:white;" />
  <polygon points="69.28203,-136 83.13844,-128 83.13844,-112 69.28203,-104 55.42562,-112 55.42562,-128" style="fill:white;" />
  <polygon points="83.13843,-112 96.99483,-104 96.99483,-88 83.13843,-80 69.28202,-88 69.28202,-104" style="fill:white;" />
  <polygon points="96.99484,-88 110.8512,-80 110.8512,-64 96.99484,-56 83.13844,-64 83.13844,-80" style="fill:white;" />
  <polygon points="110.8512,-64 124.7076,-56 124.7076,-40 110.8512,-32 96.99483,-40 96.99483,-56" style="fill:white;" />
  <polygon points="124.7076,-40 138.5641,-32 138.5641,-16 124.7076,-8 110.8512,-16 110.8512,-32" style="fill:white;" />
  <polygon points="138.5641,-16 152.4205,-8 152.4205,8 138.5641,16 124.7076,8 124.7076,-8" style="fill:white;" />
  <polygon points="152.4205,8 166.2769,16 166.2769,32 152.4205,40 138.5641,32 138.5641,16" style="fill:white;" />
  <polygon points="83.13844,-160 96.99484,-152 96.99484,-136 83.13844,-128 69.28203,-136 69.28203,-152" style="fill:white;" />
  <polygon points="96.99484,-136 110.8512,-128 110.8512,-112 96.99484,-104 83.13844,-112 83.13844,-128" style="fill:white;" />
  <polygon points="110.8512,-112 124.7076,-104 124.7076,-88 110.8512,-80 96.99483,-88 96.99483,-104" style="fill:white;" />
  <polygon points="124.7077,-88 138.5641,-80 138.5641,-64 124.7077,-56 110.8512,-64 110.8512,-80" style="fill:white;" />
  <polygon points="138.5641,-64 152.4205,-56 152.4205,-40 138.5641,-32 124.7076,-40 124.7076,-56" style="fill:white;" />
  <polygon points="152.4205,-40 166.2769,-32 166.2769,-16 152.4205,-8 138.5641,-16 138.5641,-32" style="fill:white;" />
  <polygon points="166.2769,-16 180.1333,-8 180.1333,8 166.2769,16 152.4205,8 152.4205,-8" style="fill:white;" />
  <path d="M-166.2769 -16 M-152.4205 -8 L-152.4205 8 M-166.2769 16 L-180.1333 8 L-180.1333 -8 L-166.2769 -16 M-152.4205 8 L-138.5641 16 M-138.5641 32 L-152.4205 40 L-166.2769 32 L-166.2769 16 M-152.4205 8 M-138.5641 32 M-124.7076 40 M-124.7076 56 L-138.5641 64 L-152.4205 56 L-152.4205 40 M-138.5641 32 M-124.7077 56 M-110.8512 64 L-110.8512 80 M-124.7077 88 L-138.5641 80 L-138.5641 64 M-124.7077 56 M-110.8512 80 L-96.99483 88 L-96.99483 104 M-110.8512 112 L-124.7076 104 L-124.7076 88 M-110.8512 80 M-96.99484 104 M-83.13844 112 L-83.13844 128 L-96.99484 136 L-110.8512 128 L-110.8512 112 M-96.99484 104 M-83.13844 128 L-69.28203 136 M-69.28203 152 L-83.13844 160 L-96.99484 152 L-96.99484 136 M-83.13844 128 M-152.4205 -40 M-138.5641 -32 L-138.5641 -16 L-152.4205 -8 M-166.2769 -16 L-166.2769 -32 L-152.4205 -40 M-138.5641 -16 M-124.7076 -8 L-124.7076 8 L-138.5641 16 M-152.4205 8 M-152.4205 -8 M-138.5641 -16 M-124.7076 8 L-110.8512 16 L-110.8512 32 L-124.7076 40 M-138.5641 32 M-138.5641 16 M-124.7076 8 M-110.8512 32 L-96.99483 40 L-96.99483 56 L-110.8512 64 M-124.7076 56 M-124.7076 40 M-110.8512 32 M-96.99484 56 L-83.13844 64 M-83.13844 80 L-96.99484 88 M-110.8512 80 M-110.8512 64 M-96.99484 56 M-83.13843 80 L-69.28202 88 L-69.28202 104 M-83.13843 112 M-96.99483 104 M-96.99483 88 M-83.13843 80 M-69.28203 104 M-55.42562 112 L-55.42562 128 L-69.28203 136 M-83.13844 128 M-83.13844 112 M-69.28203 104 M-55.42562 128 M-41.56921 136 L-41.56921 152 L-55.42562 160 L-69.28203 152 M-69.28203 136 M-55.42562 128 M-138.5641 -64 M-124.7076 -56 L-124.7076 -40 L-138.5641 -32 M-152.4205 -40 L-152.4205 -56 L-138.5641 -64 M-124.7077 -40 L-110.8512 -32 L-110.8512 -16 M-124.7077 -8 M-138.5641 -16 M-138.5641 -32 M-124.7077 -40 M-110.8512 -16 M-96.99484 -8 L-96.99484 8 L-110.8512 16 M-124.7077 8 M-124.7077 -8 M-110.8512 -16 M-96.99484 8 M-83.13844 16 L-83.13844 32 M-96.99484 40 M-110.8512 32 M-110.8512 16 M-96.99484 8 M-83.13844 32 M-69.28203 40 L-69.28203 56 M-83.13844 64 M-96.99484 56 M-96.99484 40 M-83.13844 32 M-69.28203 56 L-55.42562 64 L-55.42562 80 L-69.28203 88 M-83.13844 80 M-83.13844 64 M-69.28203 56 M-55.42562 80 M-41.56922 88 L-41.56922 104 L-55.42562 112 M-69.28203 104 M-69.28203 88 M-55.42562 80 M-41.56922 104 L-27.71281 112 L-27.71281 128 M-41.56922 136 M-55.42563 128 M-55.42563 112 M-41.56922 104 M-27.71281 128 L-13.85641 136 M-13.85641 152 L-27.71281 160 L-41.56922 152 M-41.56922 136 M-27.71281 128 M-124.7077 -88 L-110.8512 -80 L-110.8512 -64 M-124.7077 -56 M-138.5641 -64 L-138.5641 -80 L-124.7077 -88 M-110.8512 -64 L-96.99484 -56 M-96.99484 -40 L-110.8512 -32 M-124.7077 -40 M-124.7077 -56 M-110.8512 -64 M-96.99484 -40 L-83.13844 -32 M-83.13844 -16 M-96.99484 -8 M-110.8512 -16 M-110.8512 -32 M-96.99484 -40 M-83.13844 -16 L-69.28203 -8 L-69.28203 8 L-83.13844 16 M-96.99484 8 M-96.99484 -8 M-83.13844 -16 M-69.28203 8 L-55.42562 16 L-55.42562 32 M-69.28203 40 M-83.13844 32 M-83.13844 16 M-69.28203 8 M-55.42562 32 L-41.56921 40 M-41.56921 56 L-55.42562 64 M-69.28203 56 M-69.28203 40 M-55.42562 32 M-41.56922 56 L-27.71281 64 M-27.71281 80 L-41.56922 88 M-55.42562 80 M-55.42562 64 M-41.56922 56 M-27.71281 80 M-13.8564 88 L-13.8564 104 M-27.71281 112 M-41.56922 104 M-41.56922 88 M-27.71281 80 M-13.85641 104 L-9.536743E-07 112 L-9.536743E-07 128 M-13.85641 136 M-27.71281 128 M-27.71281 112 M-13.85641 104 M0 128 L13.85641 136 M13.85641 152 L0 160 L-13.85641 152 M-13.85641 136 M0 128 M-110.8512 -112 M-96.99484 -104 M-96.99484 -88 L-110.8512 -80 M-124.7077 -88 L-124.7077 -104 L-110.8512 -112 M-96.99484 -88 M-83.13844 -80 L-83.13844 -64 M-96.99484 -56 M-110.8512 -64 M-110.8512 -80 M-96.99484 -88 M-83.13844 -64 L-69.28203 -56 L-69.28203 -40 L-83.13844 -32 M-96.99484 -40 M-96.99484 -56 M-83.13844 -64 M-69.28203 -40 L-55.42562 -32 L-55.42562 -16 M-69.28203 -8 M-83.13844 -16 M-83.13844 -32 M-69.28203 -40 M-55.42562 -16 L-41.56922 -8 L-41.56922 8 L-55.42562 16 M-69.28203 8 M-69.28203 -8 M-55.42562 -16 M-41.56922 8 M-27.71281 16 M-27.71281 32 L-41.56922 40 M-55.42562 32 M-55.42562 16 M-41.56922 8 M-27.71281 32 L-13.85641 40 M-13.85641 56 L-27.71281 64 M-41.56922 56 M-41.56922 40 M-27.71281 32 M-13.85641 56 L-9.536743E-07 64 L-9.536743E-07 80 L-13.85641 88 M-27.71281 80 M-27.71281 64 M-13.85641 56 M0 80 M13.85641 88 M13.85641 104 L0 112 M-13.85641 104 M-13.85641 88 M0 80 M13.8564 104 M27.71281 112 L27.71281 128 M13.8564 136 M-2.861023E-06 128 M-2.861023E-06 112 M13.8564 104 M27.71281 128 L41.56922 136 L41.56922 152 L27.71281 160 L13.8564 152 M13.8564 136 M27.71281 128 M-96.99484 -136 M-83.13844 -128 L-83.13844 -112 L-96.99484 -104 M-110.8512 -112 L-110.8512 -128 L-96.99484 -136 M-83.13844 -112 L-69.28203 -104 L-69.28203 -88 L-83.13844 -80 M-96.99484 -88 M-96.99484 -104 M-83.13844 -112 M-69.28203 -88 M-55.42562 -80 L-55.42562 -64 M-69.28203 -56 M-83.13844 -64 M-83.13844 -80 M-69.28203 -88 M-55.42562 -64 M-41.56922 -56 L-41.56922 -40 L-55.42562 -32 M-69.28203 -40 M-69.28203 -56 M-55.42562 -64 M-41.56922 -40 M-27.71281 -32 L-27.71281 -16 M-41.56922 -8 M-55.42562 -16 M-55.42562 -32 M-41.56922 -40 M-27.71281 -16 L-13.85641 -8 L-13.85641 8 L-27.71281 16 M-41.56922 8 M-41.56922 -8 M-27.71281 -16 M-13.85641 8 M0 16 L0 32 L-13.85641 40 M-27.71281 32 M-27.71281 16 M-13.85641 8 M0 32 L13.85641 40 M13.85641 56 L0 64 M-13.85641 56 M-13.85641 40 M0 32 M13.85641 56 L27.71281 64 M27.71281 80 L13.85641 88 M-9.536743E-07 80 M-9.536743E-07 64 M13.85641 56 M27.71281 80 L41.56922 88 L41.56922 104 L27.71281 112 M13.85641 104 M13.85641 88 M27.71281 80 M41.56921 104 M55.42562 112 L55.42562 128 M41.56921 136 M27.71281 128 M27.71281 112 M41.56921 104 M55.42562 128 L69.28203 136 L69.28203 152 L55.42562 160 L41.56921 152 M41.56921 136 M55.42562 128 M-83.13844 -160 L-69.28203 -152 L-69.28203 -136 M-83.13844 -128 M-96.99484 -136 L-96.99484 -152 L-83.13844 -160 M-69.28203 -136 M-55.42562 -128 L-55.42562 -112 L-69.28203 -104 M-83.13844 -112 M-83.13844 -128 M-69.28203 -136 M-55.42562 -112 M-41.56922 -104 L-41.56922 -88 L-55.42562 -80 M-69.28203 -88 M-69.28203 -104 M-55.42562 -112 M-41.56922 -88 L-27.71281 -80 L-27.71281 -64 M-41.56922 -56 M-55.42562 -64 M-55.42562 -80 M-41.56922 -88 M-27.71281 -64 L-13.85641 -56 L-13.85641 -40 L-27.71281 -32 M-41.56922 -40 M-41.56922 -56 M-27.71281 -64 M-13.85641 -40 M0 -32 M0 -16 L-13.85641 -8 M-27.71281 -16 M-27.71281 -32 M-13.85641 -40 M0 -16 L13.85641 -8 L13.85641 8 M0 16 M-13.85641 8 M-13.85641 -8 M0 -16 M13.85641 8 M27.71281 16 L27.71281 32 L13.85641 40 M0 32 M0 16 M13.85641 8 M27.71281 32 L41.56922 40 M41.56922 56 M27.71281 64 M13.85641 56 M13.85641 40 M27.71281 32 M41.56922 56 L55.42562 64 L55.42562 80 L41.56922 88 M27.71281 80 M27.71281 64 M41.56922 56 M55.42562 80 M69.28203 88 L69.28203 104 L55.42562 112 M41.56922 104 M41.56922 88 M55.42562 80 M69.28203 104 L83.13844 112 M83.13844 128 M69.28203 136 M55.42562 128 M55.42562 112 M69.28203 104 M83.13844 128 L96.99484 136 L96.99484 152 L83.13844 160 L69.28203 152 M69.28203 136 M83.13844 128 M-55.42562 -160 L-41.56921 -152 M-41.56921 -136 L-55.42562 -128 M-69.28203 -136 M-69.28203 -152 L-55.42562 -160 M-41.56921 -136 L-27.71281 -128 M-27.71281 -112 L-41.56921 -104 M-55.42562 -112 M-55.42562 -128 M-41.56921 -136 M-27.71281 -112 L-13.85641 -104 M-13.85641 -88 M-27.71281 -80 M-41.56922 -88 M-41.56922 -104 M-27.71281 -112 M-13.85641 -88 L9.536743E-07 -80 L9.536743E-07 -64 M-13.85641 -56 M-27.71281 -64 M-27.71281 -80 M-13.85641 -88 M0 -64 M13.85641 -56 L13.85641 -40 L0 -32 M-13.85641 -40 M-13.85641 -56 M0 -64 M13.85641 -40 L27.71281 -32 M27.71281 -16 L13.85641 -8 M0 -16 M0 -32 M13.85641 -40 M27.71281 -16 L41.56922 -8 L41.56922 8 M27.71281 16 M13.85641 8 M13.85641 -8 M27.71281 -16 M41.56922 8 M55.42562 16 L55.42562 32 L41.56922 40 M27.71281 32 M27.71281 16 M41.56922 8 M55.42562 32 L69.28203 40 L69.28203 56 M55.42562 64 M41.56922 56 M41.56922 40 M55.42562 32 M69.28203 56 M83.13844 64 L83.13844 80 L69.28203 88 M55.42562 80 M55.42562 64 M69.28203 56 M83.13844 80 L96.99484 88 M96.99484 104 M83.13844 112 M69.28203 104 M69.28203 88 M83.13844 80 M96.99484 104 L110.8512 112 L110.8512 128 L96.99484 136 M83.13844 128 M83.13844 112 M96.99484 104 M-27.71281 -160 L-13.8564 -152 M-13.8564 -136 L-27.71281 -128 M-41.56922 -136 M-41.56922 -152 L-27.71281 -160 M-13.8564 -136 M2.861023E-06 -128 L2.861023E-06 -112 L-13.8564 -104 M-27.71281 -112 M-27.71281 -128 M-13.8564 -136 M0 -112 M13.85641 -104 L13.85641 -88 L0 -80 M-13.85641 -88 M-13.85641 -104 M0 -112 M13.85641 -88 M27.71281 -80 L27.71281 -64 L13.85641 -56 M9.536743E-07 -64 M9.536743E-07 -80 M13.85641 -88 M27.71281 -64 L41.56922 -56 M41.56922 -40 M27.71281 -32 M13.85641 -40 M13.85641 -56 M27.71281 -64 M41.56922 -40 L55.42562 -32 L55.42562 -16 L41.56922 -8 M27.71281 -16 M27.71281 -32 M41.56922 -40 M55.42562 -16 L69.28203 -8 L69.28203 8 M55.42562 16 M41.56922 8 M41.56922 -8 M55.42562 -16 M69.28203 8 M83.13844 16 L83.13844 32 L69.28203 40 M55.42562 32 M55.42562 16 M69.28203 8 M83.13844 32 M96.99484 40 L96.99484 56 L83.13844 64 M69.28203 56 M69.28203 40 M83.13844 32 M96.99484 56 M110.8512 64 L110.8512 80 M96.99484 88 M83.13844 80 M83.13844 64 M96.99484 56 M110.8512 80 L124.7077 88 L124.7077 104 L110.8512 112 M96.99484 104 M96.99484 88 M110.8512 80 M0 -160 L13.85641 -152 M13.85641 -136 L0 -128 M-13.85641 -136 M-13.85641 -152 L0 -160 M13.85641 -136 L27.71281 -128 L27.71281 -112 L13.85641 -104 M9.536743E-07 -112 M9.536743E-07 -128 M13.85641 -136 M27.71281 -112 L41.56922 -104 M41.56922 -88 L27.71281 -80 M13.8564 -88 M13.8564 -104 M27.71281 -112 M41.56922 -88 L55.42562 -80 M55.42562 -64 L41.56922 -56 M27.71281 -64 M27.71281 -80 M41.56922 -88 M55.42562 -64 L69.28203 -56 L69.28203 -40 M55.42562 -32 M41.56921 -40 M41.56921 -56 M55.42562 -64 M69.28203 -40 M83.13844 -32 L83.13844 -16 L69.28203 -8 M55.42562 -16 M55.42562 -32 M69.28203 -40 M83.13844 -16 M96.99484 -8 L96.99484 8 L83.13844 16 M69.28203 8 M69.28203 -8 M83.13844 -16 M96.99484 8 M110.8512 16 L110.8512 32 L96.99484 40 M83.13844 32 M83.13844 16 M96.99484 8 M110.8512 32 L124.7077 40 L124.7077 56 M110.8512 64 M96.99484 56 M96.99484 40 M110.8512 32 M124.7077 56 M138.5641 64 L138.5641 80 L124.7077 88 M110.8512 80 M110.8512 64 M124.7077 56 M27.71281 -160 L41.56922 -152 L41.56922 -136 M27.71281 -128 M13.85641 -136 M13.85641 -152 L27.71281 -160 M41.56922 -136 M55.42563 -128 L55.42563 -112 L41.56922 -104 M27.71281 -112 M27.71281 -128 M41.56922 -136 M55.42562 -112 L69.28203 -104 M69.28203 -88 L55.42562 -80 M41.56922 -88 M41.56922 -104 M55.42562 -112 M69.28203 -88 L83.13844 -80 L83.13844 -64 M69.28203 -56 M55.42562 -64 M55.42562 -80 M69.28203 -88 M83.13844 -64 L96.99484 -56 M96.99484 -40 L83.13844 -32 M69.28203 -40 M69.28203 -56 M83.13844 -64 M96.99484 -40 L110.8512 -32 M110.8512 -16 L96.99484 -8 M83.13844 -16 M83.13844 -32 M96.99484 -40 M110.8512 -16 L124.7077 -8 L124.7077 8 L110.8512 16 M96.99484 8 M96.99484 -8 M110.8512 -16 M124.7077 8 L138.5641 16 M138.5641 32 M124.7077 40 M110.8512 32 M110.8512 16 M124.7077 8 M138.5641 32 L152.4205 40 L152.4205 56 L138.5641 64 M124.7076 56 M124.7076 40 M138.5641 32 M55.42562 -160 L69.28203 -152 L69.28203 -136 M55.42562 -128 M41.56921 -136 M41.56921 -152 L55.42562 -160 M69.28203 -136 L83.13844 -128 M83.13844 -112 L69.28203 -104 M55.42562 -112 M55.42562 -128 M69.28203 -136 M83.13843 -112 L96.99483 -104 L96.99483 -88 M83.13843 -80 M69.28202 -88 M69.28202 -104 M83.13843 -112 M96.99484 -88 M110.8512 -80 L110.8512 -64 L96.99484 -56 M83.13844 -64 M83.13844 -80 M96.99484 -88 M110.8512 -64 L124.7076 -56 M124.7076 -40 L110.8512 -32 M96.99483 -40 M96.99483 -56 M110.8512 -64 M124.7076 -40 L138.5641 -32 L138.5641 -16 M124.7076 -8 M110.8512 -16 M110.8512 -32 M124.7076 -40 M138.5641 -16 L152.4205 -8 L152.4205 8 M138.5641 16 M124.7076 8 M124.7076 -8 M138.5641 -16 M152.4205 8 L166.2769 16 L166.2769 32 L152.4205 40 M138.5641 32 M138.5641 16 M152.4205 8 M83.13844 -160 L96.99484 -152 L96.99484 -136 M83.13844 -128 M69.28203 -136 M69.28203 -152 L83.13844 -160 M96.99484 -136 L110.8512 -128 L110.8512 -112 M96.99484 -104 M83.13844 -112 M83.13844 -128 M96.99484 -136 M110.8512 -112 L124.7076 -104 L124.7076 -88 L110.8512 -80 M96.99483 -88 M96.99483 -104 M110.8512 -112 M124.7077 -88 L138.5641 -80 L138.5641 -64 M124.7077 -56 M110.8512 -64 M110.8512 -80 M124.7077 -88 M138.5641 -64 L152.4205 -56 L152.4205 -40 M138.5641 -32 M124.7076 -40 M124.7076 -56 M138.5641 -64 M152.4205 -40 L166.2769 -32 L166.2769 -16 M152.4205 -8 M138.5641 -16 M138.5641 -32 M152.4205 -40 M166.2769 -16 L180.1333 -8 L180.1333 8 L166.2769 16 M152.4205 8 M152.4205 -8 M166.2769 -16" stroke-width="1" style="fill:none;stroke:#05324D;" />
</svg>