<svg xmlns="http://www.w3.org/2000/svg" version="1.1" xmlns:xlink="http://www.w3.org/1999/xlink"
  xmlns:svgjs="http://svgjs.dev/svgjs" viewBox="-50 -50 2700 1200" width="2700" height="1200">
  <g stroke-width="1" stroke="hsl(203, 30%, 50%)" fill="none">
    <rect width="100" height="200" x="0" y="0"></rect>
    <rect width="100" height="200" x="100" y="0"></rect>
    <rect width="100" height="200" x="200" y="0"></rect>
    <rect width="100" height="200" x="300" y="0"></rect>
    <rect width="100" height="200" x="400" y="0"></rect>
    <rect width="100" height="200" x="500" y="0"></rect>
    <rect width="100" height="200" x="600" y="0"></rect>
    <rect width="100" height="200" x="700" y="0"></rect>
    <rect width="100" height="200" x="800" y="0"></rect>
    <rect width="100" height="200" x="900" y="0"></rect>
    <rect width="100" height="200" x="1000" y="0"></rect>
    <rect width="100" height="200" x="1100" y="0"></rect>
    <rect width="100" height="200" x="1200" y="0"></rect>
    <rect width="100" height="200" x="1300" y="0"></rect>
    <rect width="100" height="200" x="1400" y="0"></rect>
    <rect width="100" height="200" x="1500" y="0"></rect>
    <rect width="100" height="200" x="1600" y="0"></rect>
    <rect width="100" height="200" x="1700" y="0"></rect>
    <rect width="100" height="200" x="1800" y="0"></rect>
    <rect width="100" height="200" x="1900" y="0"></rect>
    <rect width="100" height="200" x="2000" y="0"></rect>
    <rect width="100" height="200" x="2100" y="0"></rect>
    <rect width="100" height="200" x="2200" y="0"></rect>
    <rect width="100" height="200" x="2300" y="0"></rect>
    <rect width="100" height="200" x="2400" y="0"></rect>
    <rect width="100" height="200" x="2500" y="0"></rect>
    <rect width="100" height="200" x="0" y="200"></rect>
    <rect width="100" height="200" x="100" y="200"></rect>
    <rect width="100" height="200" x="200" y="200"></rect>
    <rect width="100" height="200" x="300" y="200"></rect>
    <rect width="100" height="200" x="400" y="200"></rect>
    <rect width="100" height="200" x="500" y="200"></rect>
    <rect width="100" height="200" x="600" y="200"></rect>
    <rect width="100" height="200" x="700" y="200"></rect>
    <rect width="100" height="200" x="800" y="200"></rect>
    <rect width="100" height="200" x="900" y="200"></rect>
    <rect width="100" height="200" x="1000" y="200"></rect>
    <rect width="100" height="200" x="1100" y="200"></rect>
    <rect width="100" height="200" x="1200" y="200"></rect>
    <rect width="100" height="200" x="1300" y="200"></rect>
    <rect width="100" height="200" x="1400" y="200"></rect>
    <rect width="100" height="200" x="1500" y="200"></rect>
    <rect width="100" height="200" x="1600" y="200"></rect>
    <rect width="100" height="200" x="1700" y="200"></rect>
    <rect width="100" height="200" x="1800" y="200"></rect>
    <rect width="100" height="200" x="1900" y="200"></rect>
    <rect width="100" height="200" x="2000" y="200"></rect>
    <rect width="100" height="200" x="2100" y="200"></rect>
    <rect width="100" height="200" x="2200" y="200"></rect>
    <rect width="100" height="200" x="2300" y="200"></rect>
    <rect width="100" height="200" x="2400" y="200"></rect>
    <rect width="100" height="200" x="2500" y="200"></rect>
    <rect width="100" height="200" x="0" y="400"></rect>
    <rect width="100" height="200" x="100" y="400"></rect>
    <rect width="100" height="200" x="200" y="400"></rect>
    <rect width="100" height="200" x="300" y="400"></rect>
    <rect width="100" height="200" x="400" y="400"></rect>
    <rect width="100" height="200" x="500" y="400"></rect>
    <rect width="100" height="200" x="600" y="400"></rect>
    <rect width="100" height="200" x="700" y="400"></rect>
    <rect width="100" height="200" x="800" y="400"></rect>
    <rect width="100" height="200" x="900" y="400"></rect>
    <rect width="100" height="200" x="1000" y="400"></rect>
    <rect width="100" height="200" x="1100" y="400"></rect>
    <rect width="100" height="200" x="1200" y="400"></rect>
    <rect width="100" height="200" x="1300" y="400"></rect>
    <rect width="100" height="200" x="1400" y="400"></rect>
    <rect width="100" height="200" x="1500" y="400"></rect>
    <rect width="100" height="200" x="1600" y="400"></rect>
    <rect width="100" height="200" x="1700" y="400"></rect>
    <rect width="100" height="200" x="1800" y="400"></rect>
    <rect width="100" height="200" x="1900" y="400"></rect>
    <rect width="100" height="200" x="2000" y="400"></rect>
    <rect width="100" height="200" x="2100" y="400"></rect>
    <rect width="100" height="200" x="2200" y="400"></rect>
    <rect width="100" height="200" x="2300" y="400"></rect>
    <rect width="100" height="200" x="2400" y="400"></rect>
    <rect width="100" height="200" x="2500" y="400"></rect>
    <rect width="100" height="200" x="0" y="600"></rect>
    <rect width="100" height="200" x="100" y="600"></rect>
    <rect width="100" height="200" x="200" y="600"></rect>
    <rect width="100" height="200" x="300" y="600"></rect>
    <rect width="100" height="200" x="400" y="600"></rect>
    <rect width="100" height="200" x="500" y="600"></rect>
    <rect width="100" height="200" x="600" y="600"></rect>
    <rect width="100" height="200" x="700" y="600"></rect>
    <rect width="100" height="200" x="800" y="600"></rect>
    <rect width="100" height="200" x="900" y="600"></rect>
    <rect width="100" height="200" x="1000" y="600"></rect>
    <rect width="100" height="200" x="1100" y="600"></rect>
    <rect width="100" height="200" x="1200" y="600"></rect>
    <rect width="100" height="200" x="1300" y="600"></rect>
    <rect width="100" height="200" x="1400" y="600"></rect>
    <rect width="100" height="200" x="1500" y="600"></rect>
    <rect width="100" height="200" x="1600" y="600"></rect>
    <rect width="100" height="200" x="1700" y="600"></rect>
    <rect width="100" height="200" x="1800" y="600"></rect>
    <rect width="100" height="200" x="1900" y="600"></rect>
    <rect width="100" height="200" x="2000" y="600"></rect>
    <rect width="100" height="200" x="2100" y="600"></rect>
    <rect width="100" height="200" x="2200" y="600"></rect>
    <rect width="100" height="200" x="2300" y="600"></rect>
    <rect width="100" height="200" x="2400" y="600"></rect>
    <rect width="100" height="200" x="2500" y="600"></rect>
    <rect width="100" height="200" x="0" y="800"></rect>
    <rect width="100" height="200" x="100" y="800"></rect>
    <rect width="100" height="200" x="200" y="800"></rect>
    <rect width="100" height="200" x="300" y="800"></rect>
    <rect width="100" height="200" x="400" y="800"></rect>
    <rect width="100" height="200" x="500" y="800"></rect>
    <rect width="100" height="200" x="600" y="800"></rect>
    <rect width="100" height="200" x="700" y="800"></rect>
    <rect width="100" height="200" x="800" y="800"></rect>
    <rect width="100" height="200" x="900" y="800"></rect>
    <rect width="100" height="200" x="1000" y="800"></rect>
    <rect width="100" height="200" x="1100" y="800"></rect>
    <rect width="100" height="200" x="1200" y="800"></rect>
    <rect width="100" height="200" x="1300" y="800"></rect>
    <rect width="100" height="200" x="1400" y="800"></rect>
    <rect width="100" height="200" x="1500" y="800"></rect>
    <rect width="100" height="200" x="1600" y="800"></rect>
    <rect width="100" height="200" x="1700" y="800"></rect>
    <rect width="100" height="200" x="1800" y="800"></rect>
    <rect width="100" height="200" x="1900" y="800"></rect>
    <rect width="100" height="200" x="2000" y="800"></rect>
    <rect width="100" height="200" x="2100" y="800"></rect>
    <rect width="100" height="200" x="2200" y="800"></rect>
    <rect width="100" height="200" x="2300" y="800"></rect>
    <rect width="100" height="200" x="2400" y="800"></rect>
    <rect width="100" height="200" x="2500" y="800"></rect>
  </g>
  <g>
    <rect fill="hsla(203, 50%, 65%, 1.00)" width="1200" height="200" x="0"
      y="0"></rect>
    <text x="600" y="100" dominant-baseline="middle" text-anchor="middle"
      font-size="70" font-family="sans-serif">A (12)</text>
  </g>
  <g>
    <rect fill="hsla(275, 50%, 65%, 1.00)" width="1000" height="200" x="0"
      y="200"></rect>
    <text x="500" y="300" dominant-baseline="middle" text-anchor="middle"
      font-size="70" font-family="sans-serif">B (10)</text>
  </g>
  <g>
    <rect fill="hsla(203, 50%, 65%, 1.00)" width="200" height="200" x="1000"
      y="200"></rect>
    <text x="1100" y="300" dominant-baseline="middle" text-anchor="middle"
      font-size="70" font-family="sans-serif">A (2)</text>
  </g>
  <g>
    <rect fill="hsla(347, 50%, 65%, 1.00)" width="500" height="200" x="0"
      y="400"></rect>
    <text x="250" y="500" dominant-baseline="middle" text-anchor="middle"
      font-size="70" font-family="sans-serif">C (5)</text>
  </g>
  <g>
    <rect fill="hsla(203, 50%, 65%, 1.00)" width="700" height="200" x="500"
      y="400"></rect>
    <text x="850" y="500" dominant-baseline="middle" text-anchor="middle"
      font-size="70" font-family="sans-serif">A (7)</text>
  </g>
  <g>
    <rect fill="hsla(59, 50%, 65%, 1.00)" width="800" height="200" x="0"
      y="600"></rect>
    <text x="400" y="700" dominant-baseline="middle" text-anchor="middle"
      font-size="70" font-family="sans-serif">D (8)</text>
  </g>
  <g>
    <rect fill="hsla(203, 50%, 65%, 1.00)" width="400" height="200" x="800"
      y="600"></rect>
    <text x="1000" y="700" dominant-baseline="middle" text-anchor="middle"
      font-size="70" font-family="sans-serif">A (4)</text>
  </g>
  <g>
    <rect fill="hsla(131, 50%, 65%, 1.00)" width="500" height="200" x="0"
      y="800"></rect>
    <text x="250" y="900" dominant-baseline="middle" text-anchor="middle"
      font-size="70" font-family="sans-serif">E (5)</text>
  </g>
  <g>
    <rect fill="hsla(59, 50%, 65%, 1.00)" width="700" height="200" x="500"
      y="800"></rect>
    <text x="850" y="900" dominant-baseline="middle" text-anchor="middle"
      font-size="70" font-family="sans-serif">D (7)</text>
  </g>
  <g>
    <line x1="1200" y1="0" x2="1200" y2="1000" stroke="hsla(347, 75%, 50%,
    1.00)"
      stroke-width="5"></line>
    <text x="1200" y="1075" dominant-baseline="middle" text-anchor="middle"
      font-size="70" font-family="sans-serif">12</text>
  </g>
</svg>