<?xml version="1.0" encoding="utf-8"?>
<!DOCTYPE svg PUBLIC "-//W3C//DTD SVG 1.1//EN" "http://www.w3.org/Graphics/SVG/1.1/DTD/svg11.dtd">
<svg version="1.1" xmlns="http://www.w3.org/2000/svg" xmlns:xlink="http://www.w3.org/1999/xlink" xmlns:xml="http://www.w3.org/XML/1998/namespace" width="450" height="300" viewBox="0, 0, 450, 300">
  <rect x="25" y="25" width="25" height="25" style="fill:white;" />
  <rect x="25" y="50" width="25" height="25" style="fill:white;" />
  <rect x="25" y="75" width="25" height="25" style="fill:white;" />
  <rect x="25" y="100" width="25" height="25" style="fill:white;" />
  <rect x="25" y="125" width="25" height="25" style="fill:white;" />
  <rect x="25" y="150" width="25" height="25" style="fill:white;" />
  <rect x="25" y="175" width="25" height="25" style="fill:#87C5E8;" />
  <rect x="25" y="200" width="25" height="25" style="fill:white;" />
  <rect x="25" y="225" width="25" height="25" style="fill:white;" />
  <rect x="25" y="250" width="25" height="25" style="fill:white;" />
  <rect x="50" y="25" width="25" height="25" style="fill:white;" />
  <rect x="50" y="50" width="25" height="25" style="fill:white;" />
  <rect x="50" y="75" width="25" height="25" style="fill:white;" />
  <rect x="50" y="100" width="25" height="25" style="fill:white;" />
  <rect x="50" y="125" width="25" height="25" style="fill:white;" />
  <rect x="50" y="150" width="25" height="25" style="fill:white;" />
  <rect x="50" y="175" width="25" height="25" style="fill:#87C5E8;" />
  <rect x="50" y="200" width="25" height="25" style="fill:white;" />
  <rect x="50" y="225" width="25" height="25" style="fill:white;" />
  <rect x="50" y="250" width="25" height="25" style="fill:white;" />
  <rect x="75" y="25" width="25" height="25" style="fill:white;" />
  <rect x="75" y="50" width="25" height="25" style="fill:white;" />
  <rect x="75" y="75" width="25" height="25" style="fill:white;" />
  <rect x="75" y="100" width="25" height="25" style="fill:white;" />
  <rect x="75" y="125" width="25" height="25" style="fill:white;" />
  <rect x="75" y="150" width="25" height="25" style="fill:white;" />
  <rect x="75" y="175" width="25" height="25" style="fill:#87C5E8;" />
  <rect x="75" y="200" width="25" height="25" style="fill:white;" />
  <rect x="75" y="225" width="25" height="25" style="fill:white;" />
  <rect x="75" y="250" width="25" height="25" style="fill:white;" />
  <rect x="100" y="25" width="25" height="25" style="fill:white;" />
  <rect x="100" y="50" width="25" height="25" style="fill:white;" />
  <rect x="100" y="75" width="25" height="25" style="fill:white;" />
  <rect x="100" y="100" width="25" height="25" style="fill:white;" />
  <rect x="100" y="125" width="25" height="25" style="fill:white;" />
  <rect x="100" y="150" width="25" height="25" style="fill:white;" />
  <rect x="100" y="175" width="25" height="25" style="fill:#87C5E8;" />
  <rect x="100" y="200" width="25" height="25" style="fill:white;" />
  <rect x="100" y="225" width="25" height="25" style="fill:white;" />
  <rect x="100" y="250" width="25" height="25" style="fill:white;" />
  <rect x="125" y="25" width="25" height="25" style="fill:#87C5E8;" />
  <rect x="125" y="50" width="25" height="25" style="fill:#87C5E8;" />
  <rect x="125" y="75" width="25" height="25" style="fill:#87C5E8;" />
  <rect x="125" y="100" width="25" height="25" style="fill:#87C5E8;" />
  <rect x="125" y="125" width="25" height="25" style="fill:#87C5E8;" />
  <rect x="125" y="150" width="25" height="25" style="fill:#87C5E8;" />
  <rect x="125" y="175" width="25" height="25" style="fill:#166EA2;" />
  <rect x="125" y="200" width="25" height="25" style="fill:#87C5E8;" />
  <rect x="125" y="225" width="25" height="25" style="fill:#87C5E8;" />
  <rect x="125" y="250" width="25" height="25" style="fill:#87C5E8;" />
  <rect x="150" y="25" width="25" height="25" style="fill:white;" />
  <rect x="150" y="50" width="25" height="25" style="fill:white;" />
  <rect x="150" y="75" width="25" height="25" style="fill:white;" />
  <rect x="150" y="100" width="25" height="25" style="fill:white;" />
  <rect x="150" y="125" width="25" height="25" style="fill:white;" />
  <rect x="150" y="150" width="25" height="25" style="fill:white;" />
  <rect x="150" y="175" width="25" height="25" style="fill:#87C5E8;" />
  <rect x="150" y="200" width="25" height="25" style="fill:white;" />
  <rect x="150" y="225" width="25" height="25" style="fill:white;" />
  <rect x="150" y="250" width="25" height="25" style="fill:white;" />
  <rect x="175" y="25" width="25" height="25" style="fill:white;" />
  <rect x="175" y="50" width="25" height="25" style="fill:white;" />
  <rect x="175" y="75" width="25" height="25" style="fill:white;" />
  <rect x="175" y="100" width="25" height="25" style="fill:white;" />
  <rect x="175" y="125" width="25" height="25" style="fill:white;" />
  <rect x="175" y="150" width="25" height="25" style="fill:white;" />
  <rect x="175" y="175" width="25" height="25" style="fill:#87C5E8;" />
  <rect x="175" y="200" width="25" height="25" style="fill:white;" />
  <rect x="175" y="225" width="25" height="25" style="fill:white;" />
  <rect x="175" y="250" width="25" height="25" style="fill:white;" />
  <rect x="200" y="25" width="25" height="25" style="fill:white;" />
  <rect x="200" y="50" width="25" height="25" style="fill:white;" />
  <rect x="200" y="75" width="25" height="25" style="fill:white;" />
  <rect x="200" y="100" width="25" height="25" style="fill:white;" />
  <rect x="200" y="125" width="25" height="25" style="fill:white;" />
  <rect x="200" y="150" width="25" height="25" style="fill:white;" />
  <rect x="200" y="175" width="25" height="25" style="fill:#87C5E8;" />
  <rect x="200" y="200" width="25" height="25" style="fill:white;" />
  <rect x="200" y="225" width="25" height="25" style="fill:white;" />
  <rect x="200" y="250" width="25" height="25" style="fill:white;" />
  <rect x="225" y="25" width="25" height="25" style="fill:white;" />
  <rect x="225" y="50" width="25" height="25" style="fill:white;" />
  <rect x="225" y="75" width="25" height="25" style="fill:white;" />
  <rect x="225" y="100" width="25" height="25" style="fill:white;" />
  <rect x="225" y="125" width="25" height="25" style="fill:white;" />
  <rect x="225" y="150" width="25" height="25" style="fill:white;" />
  <rect x="225" y="175" width="25" height="25" style="fill:#87C5E8;" />
  <rect x="225" y="200" width="25" height="25" style="fill:white;" />
  <rect x="225" y="225" width="25" height="25" style="fill:white;" />
  <rect x="225" y="250" width="25" height="25" style="fill:white;" />
  <rect x="250" y="25" width="25" height="25" style="fill:white;" />
  <rect x="250" y="50" width="25" height="25" style="fill:white;" />
  <rect x="250" y="75" width="25" height="25" style="fill:white;" />
  <rect x="250" y="100" width="25" height="25" style="fill:white;" />
  <rect x="250" y="125" width="25" height="25" style="fill:white;" />
  <rect x="250" y="150" width="25" height="25" style="fill:white;" />
  <rect x="250" y="175" width="25" height="25" style="fill:#87C5E8;" />
  <rect x="250" y="200" width="25" height="25" style="fill:white;" />
  <rect x="250" y="225" width="25" height="25" style="fill:white;" />
  <rect x="250" y="250" width="25" height="25" style="fill:white;" />
  <rect x="275" y="25" width="25" height="25" style="fill:white;" />
  <rect x="275" y="50" width="25" height="25" style="fill:white;" />
  <rect x="275" y="75" width="25" height="25" style="fill:white;" />
  <rect x="275" y="100" width="25" height="25" style="fill:white;" />
  <rect x="275" y="125" width="25" height="25" style="fill:white;" />
  <rect x="275" y="150" width="25" height="25" style="fill:white;" />
  <rect x="275" y="175" width="25" height="25" style="fill:#87C5E8;" />
  <rect x="275" y="200" width="25" height="25" style="fill:white;" />
  <rect x="275" y="225" width="25" height="25" style="fill:white;" />
  <rect x="275" y="250" width="25" height="25" style="fill:white;" />
  <rect x="300" y="25" width="25" height="25" style="fill:white;" />
  <rect x="300" y="50" width="25" height="25" style="fill:white;" />
  <rect x="300" y="75" width="25" height="25" style="fill:white;" />
  <rect x="300" y="100" width="25" height="25" style="fill:white;" />
  <rect x="300" y="125" width="25" height="25" style="fill:white;" />
  <rect x="300" y="150" width="25" height="25" style="fill:white;" />
  <rect x="300" y="175" width="25" height="25" style="fill:#87C5E8;" />
  <rect x="300" y="200" width="25" height="25" style="fill:white;" />
  <rect x="300" y="225" width="25" height="25" style="fill:white;" />
  <rect x="300" y="250" width="25" height="25" style="fill:white;" />
  <rect x="325" y="25" width="25" height="25" style="fill:white;" />
  <rect x="325" y="50" width="25" height="25" style="fill:white;" />
  <rect x="325" y="75" width="25" height="25" style="fill:white;" />
  <rect x="325" y="100" width="25" height="25" style="fill:white;" />
  <rect x="325" y="125" width="25" height="25" style="fill:white;" />
  <rect x="325" y="150" width="25" height="25" style="fill:white;" />
  <rect x="325" y="175" width="25" height="25" style="fill:#87C5E8;" />
  <rect x="325" y="200" width="25" height="25" style="fill:white;" />
  <rect x="325" y="225" width="25" height="25" style="fill:white;" />
  <rect x="325" y="250" width="25" height="25" style="fill:white;" />
  <rect x="350" y="25" width="25" height="25" style="fill:white;" />
  <rect x="350" y="50" width="25" height="25" style="fill:white;" />
  <rect x="350" y="75" width="25" height="25" style="fill:white;" />
  <rect x="350" y="100" width="25" height="25" style="fill:white;" />
  <rect x="350" y="125" width="25" height="25" style="fill:white;" />
  <rect x="350" y="150" width="25" height="25" style="fill:white;" />
  <rect x="350" y="175" width="25" height="25" style="fill:#87C5E8;" />
  <rect x="350" y="200" width="25" height="25" style="fill:white;" />
  <rect x="350" y="225" width="25" height="25" style="fill:white;" />
  <rect x="350" y="250" width="25" height="25" style="fill:white;" />
  <rect x="375" y="25" width="25" height="25" style="fill:white;" />
  <rect x="375" y="50" width="25" height="25" style="fill:white;" />
  <rect x="375" y="75" width="25" height="25" style="fill:white;" />
  <rect x="375" y="100" width="25" height="25" style="fill:white;" />
  <rect x="375" y="125" width="25" height="25" style="fill:white;" />
  <rect x="375" y="150" width="25" height="25" style="fill:white;" />
  <rect x="375" y="175" width="25" height="25" style="fill:#87C5E8;" />
  <rect x="375" y="200" width="25" height="25" style="fill:white;" />
  <rect x="375" y="225" width="25" height="25" style="fill:white;" />
  <rect x="375" y="250" width="25" height="25" style="fill:white;" />
  <rect x="400" y="25" width="25" height="25" style="fill:white;" />
  <rect x="400" y="50" width="25" height="25" style="fill:white;" />
  <rect x="400" y="75" width="25" height="25" style="fill:white;" />
  <rect x="400" y="100" width="25" height="25" style="fill:white;" />
  <rect x="400" y="125" width="25" height="25" style="fill:white;" />
  <rect x="400" y="150" width="25" height="25" style="fill:white;" />
  <rect x="400" y="175" width="25" height="25" style="fill:#87C5E8;" />
  <rect x="400" y="200" width="25" height="25" style="fill:white;" />
  <rect x="400" y="225" width="25" height="25" style="fill:white;" />
  <rect x="400" y="250" width="25" height="25" style="fill:white;" />
  <line x1="350" y1="25" x2="350" y2="50" stroke-width="1" style="stroke:#032030;" />
  <line x1="350" y1="50" x2="325" y2="50" stroke-width="1" style="stroke:#032030;" />
  <line x1="325" y1="25" x2="350" y2="25" stroke-width="1" style="stroke:#032030;" />
  <line x1="350" y1="50" x2="350" y2="75" stroke-width="1" style="stroke:#032030;" />
  <line x1="350" y1="75" x2="325" y2="75" stroke-width="1" style="stroke:#032030;" />
  <line x1="350" y1="75" x2="350" y2="100" stroke-width="1" style="stroke:#032030;" />
  <line x1="350" y1="100" x2="325" y2="100" stroke-width="1" style="stroke:#032030;" />
  <line x1="350" y1="100" x2="350" y2="125" stroke-width="1" style="stroke:#032030;" />
  <line x1="350" y1="125" x2="325" y2="125" stroke-width="1" style="stroke:#032030;" />
  <line x1="350" y1="125" x2="350" y2="150" stroke-width="1" style="stroke:#032030;" />
  <line x1="350" y1="150" x2="325" y2="150" stroke-width="1" style="stroke:#032030;" />
  <line x1="350" y1="150" x2="350" y2="175" stroke-width="1" style="stroke:#032030;" />
  <line x1="350" y1="175" x2="325" y2="175" stroke-width="1" style="stroke:#032030;" />
  <line x1="350" y1="175" x2="350" y2="200" stroke-width="1" style="stroke:#032030;" />
  <line x1="350" y1="200" x2="325" y2="200" stroke-width="1" style="stroke:#032030;" />
  <line x1="350" y1="200" x2="350" y2="225" stroke-width="1" style="stroke:#032030;" />
  <line x1="350" y1="225" x2="325" y2="225" stroke-width="1" style="stroke:#032030;" />
  <line x1="350" y1="225" x2="350" y2="250" stroke-width="1" style="stroke:#032030;" />
  <line x1="350" y1="250" x2="325" y2="250" stroke-width="1" style="stroke:#032030;" />
  <line x1="350" y1="250" x2="350" y2="275" stroke-width="1" style="stroke:#032030;" />
  <line x1="350" y1="275" x2="325" y2="275" stroke-width="1" style="stroke:#032030;" />
  <line x1="275" y1="25" x2="275" y2="50" stroke-width="1" style="stroke:#032030;" />
  <line x1="275" y1="50" x2="250" y2="50" stroke-width="1" style="stroke:#032030;" />
  <line x1="250" y1="25" x2="275" y2="25" stroke-width="1" style="stroke:#032030;" />
  <line x1="275" y1="50" x2="275" y2="75" stroke-width="1" style="stroke:#032030;" />
  <line x1="275" y1="75" x2="250" y2="75" stroke-width="1" style="stroke:#032030;" />
  <line x1="275" y1="75" x2="275" y2="100" stroke-width="1" style="stroke:#032030;" />
  <line x1="275" y1="100" x2="250" y2="100" stroke-width="1" style="stroke:#032030;" />
  <line x1="275" y1="100" x2="275" y2="125" stroke-width="1" style="stroke:#032030;" />
  <line x1="275" y1="125" x2="250" y2="125" stroke-width="1" style="stroke:#032030;" />
  <line x1="275" y1="125" x2="275" y2="150" stroke-width="1" style="stroke:#032030;" />
  <line x1="275" y1="150" x2="250" y2="150" stroke-width="1" style="stroke:#032030;" />
  <line x1="275" y1="150" x2="275" y2="175" stroke-width="1" style="stroke:#032030;" />
  <line x1="275" y1="175" x2="250" y2="175" stroke-width="1" style="stroke:#032030;" />
  <line x1="275" y1="175" x2="275" y2="200" stroke-width="1" style="stroke:#032030;" />
  <line x1="275" y1="200" x2="250" y2="200" stroke-width="1" style="stroke:#032030;" />
  <line x1="275" y1="200" x2="275" y2="225" stroke-width="1" style="stroke:#032030;" />
  <line x1="275" y1="225" x2="250" y2="225" stroke-width="1" style="stroke:#032030;" />
  <line x1="275" y1="225" x2="275" y2="250" stroke-width="1" style="stroke:#032030;" />
  <line x1="275" y1="250" x2="250" y2="250" stroke-width="1" style="stroke:#032030;" />
  <line x1="275" y1="250" x2="275" y2="275" stroke-width="1" style="stroke:#032030;" />
  <line x1="275" y1="275" x2="250" y2="275" stroke-width="1" style="stroke:#032030;" />
  <line x1="200" y1="25" x2="200" y2="50" stroke-width="1" style="stroke:#032030;" />
  <line x1="200" y1="50" x2="175" y2="50" stroke-width="1" style="stroke:#032030;" />
  <line x1="175" y1="25" x2="200" y2="25" stroke-width="1" style="stroke:#032030;" />
  <line x1="200" y1="50" x2="200" y2="75" stroke-width="1" style="stroke:#032030;" />
  <line x1="200" y1="75" x2="175" y2="75" stroke-width="1" style="stroke:#032030;" />
  <line x1="200" y1="75" x2="200" y2="100" stroke-width="1" style="stroke:#032030;" />
  <line x1="200" y1="100" x2="175" y2="100" stroke-width="1" style="stroke:#032030;" />
  <line x1="200" y1="100" x2="200" y2="125" stroke-width="1" style="stroke:#032030;" />
  <line x1="200" y1="125" x2="175" y2="125" stroke-width="1" style="stroke:#032030;" />
  <line x1="200" y1="125" x2="200" y2="150" stroke-width="1" style="stroke:#032030;" />
  <line x1="200" y1="150" x2="175" y2="150" stroke-width="1" style="stroke:#032030;" />
  <line x1="200" y1="150" x2="200" y2="175" stroke-width="1" style="stroke:#032030;" />
  <line x1="200" y1="175" x2="175" y2="175" stroke-width="1" style="stroke:#032030;" />
  <line x1="200" y1="175" x2="200" y2="200" stroke-width="1" style="stroke:#032030;" />
  <line x1="200" y1="200" x2="175" y2="200" stroke-width="1" style="stroke:#032030;" />
  <line x1="200" y1="200" x2="200" y2="225" stroke-width="1" style="stroke:#032030;" />
  <line x1="200" y1="225" x2="175" y2="225" stroke-width="1" style="stroke:#032030;" />
  <line x1="200" y1="225" x2="200" y2="250" stroke-width="1" style="stroke:#032030;" />
  <line x1="200" y1="250" x2="175" y2="250" stroke-width="1" style="stroke:#032030;" />
  <line x1="200" y1="250" x2="200" y2="275" stroke-width="1" style="stroke:#032030;" />
  <line x1="200" y1="275" x2="175" y2="275" stroke-width="1" style="stroke:#032030;" />
  <line x1="125" y1="25" x2="125" y2="50" stroke-width="1" style="stroke:#032030;" />
  <line x1="125" y1="50" x2="100" y2="50" stroke-width="1" style="stroke:#032030;" />
  <line x1="100" y1="25" x2="125" y2="25" stroke-width="1" style="stroke:#032030;" />
  <line x1="125" y1="50" x2="125" y2="75" stroke-width="1" style="stroke:#032030;" />
  <line x1="125" y1="75" x2="100" y2="75" stroke-width="1" style="stroke:#032030;" />
  <line x1="125" y1="75" x2="125" y2="100" stroke-width="1" style="stroke:#032030;" />
  <line x1="125" y1="100" x2="100" y2="100" stroke-width="1" style="stroke:#032030;" />
  <line x1="125" y1="100" x2="125" y2="125" stroke-width="1" style="stroke:#032030;" />
  <line x1="125" y1="125" x2="100" y2="125" stroke-width="1" style="stroke:#032030;" />
  <line x1="125" y1="125" x2="125" y2="150" stroke-width="1" style="stroke:#032030;" />
  <line x1="125" y1="150" x2="100" y2="150" stroke-width="1" style="stroke:#032030;" />
  <line x1="125" y1="150" x2="125" y2="175" stroke-width="1" style="stroke:#032030;" />
  <line x1="125" y1="175" x2="100" y2="175" stroke-width="1" style="stroke:#032030;" />
  <line x1="125" y1="175" x2="125" y2="200" stroke-width="1" style="stroke:#032030;" />
  <line x1="125" y1="200" x2="100" y2="200" stroke-width="1" style="stroke:#032030;" />
  <line x1="125" y1="200" x2="125" y2="225" stroke-width="1" style="stroke:#032030;" />
  <line x1="125" y1="225" x2="100" y2="225" stroke-width="1" style="stroke:#032030;" />
  <line x1="125" y1="225" x2="125" y2="250" stroke-width="1" style="stroke:#032030;" />
  <line x1="125" y1="250" x2="100" y2="250" stroke-width="1" style="stroke:#032030;" />
  <line x1="125" y1="250" x2="125" y2="275" stroke-width="1" style="stroke:#032030;" />
  <line x1="125" y1="275" x2="100" y2="275" stroke-width="1" style="stroke:#032030;" />
  <line x1="50" y1="25" x2="50" y2="50" stroke-width="1" style="stroke:#032030;" />
  <line x1="50" y1="50" x2="25" y2="50" stroke-width="1" style="stroke:#032030;" />
  <line x1="25" y1="25" x2="50" y2="25" stroke-width="1" style="stroke:#032030;" />
  <line x1="25" y1="50" x2="25" y2="25" stroke-width="1" style="stroke:#032030;" />
  <line x1="50" y1="50" x2="50" y2="75" stroke-width="1" style="stroke:#032030;" />
  <line x1="50" y1="75" x2="25" y2="75" stroke-width="1" style="stroke:#032030;" />
  <line x1="25" y1="75" x2="25" y2="50" stroke-width="1" style="stroke:#032030;" />
  <line x1="50" y1="75" x2="50" y2="100" stroke-width="1" style="stroke:#032030;" />
  <line x1="50" y1="100" x2="25" y2="100" stroke-width="1" style="stroke:#032030;" />
  <line x1="25" y1="100" x2="25" y2="75" stroke-width="1" style="stroke:#032030;" />
  <line x1="50" y1="100" x2="50" y2="125" stroke-width="1" style="stroke:#032030;" />
  <line x1="50" y1="125" x2="25" y2="125" stroke-width="1" style="stroke:#032030;" />
  <line x1="25" y1="125" x2="25" y2="100" stroke-width="1" style="stroke:#032030;" />
  <line x1="50" y1="125" x2="50" y2="150" stroke-width="1" style="stroke:#032030;" />
  <line x1="50" y1="150" x2="25" y2="150" stroke-width="1" style="stroke:#032030;" />
  <line x1="25" y1="150" x2="25" y2="125" stroke-width="1" style="stroke:#032030;" />
  <line x1="50" y1="150" x2="50" y2="175" stroke-width="1" style="stroke:#032030;" />
  <line x1="50" y1="175" x2="25" y2="175" stroke-width="1" style="stroke:#032030;" />
  <line x1="25" y1="175" x2="25" y2="150" stroke-width="1" style="stroke:#032030;" />
  <line x1="50" y1="175" x2="50" y2="200" stroke-width="1" style="stroke:#032030;" />
  <line x1="50" y1="200" x2="25" y2="200" stroke-width="1" style="stroke:#032030;" />
  <line x1="25" y1="200" x2="25" y2="175" stroke-width="1" style="stroke:#032030;" />
  <line x1="50" y1="200" x2="50" y2="225" stroke-width="1" style="stroke:#032030;" />
  <line x1="50" y1="225" x2="25" y2="225" stroke-width="1" style="stroke:#032030;" />
  <line x1="25" y1="225" x2="25" y2="200" stroke-width="1" style="stroke:#032030;" />
  <line x1="50" y1="225" x2="50" y2="250" stroke-width="1" style="stroke:#032030;" />
  <line x1="50" y1="250" x2="25" y2="250" stroke-width="1" style="stroke:#032030;" />
  <line x1="25" y1="250" x2="25" y2="225" stroke-width="1" style="stroke:#032030;" />
  <line x1="50" y1="250" x2="50" y2="275" stroke-width="1" style="stroke:#032030;" />
  <line x1="50" y1="275" x2="25" y2="275" stroke-width="1" style="stroke:#032030;" />
  <line x1="25" y1="275" x2="25" y2="250" stroke-width="1" style="stroke:#032030;" />
  <line x1="400" y1="25" x2="400" y2="50" stroke-width="1" style="stroke:#032030;" />
  <line x1="400" y1="50" x2="375" y2="50" stroke-width="1" style="stroke:#032030;" />
  <line x1="375" y1="25" x2="400" y2="25" stroke-width="1" style="stroke:#032030;" />
  <line x1="400" y1="50" x2="400" y2="75" stroke-width="1" style="stroke:#032030;" />
  <line x1="400" y1="75" x2="375" y2="75" stroke-width="1" style="stroke:#032030;" />
  <line x1="400" y1="75" x2="400" y2="100" stroke-width="1" style="stroke:#032030;" />
  <line x1="400" y1="100" x2="375" y2="100" stroke-width="1" style="stroke:#032030;" />
  <line x1="400" y1="100" x2="400" y2="125" stroke-width="1" style="stroke:#032030;" />
  <line x1="400" y1="125" x2="375" y2="125" stroke-width="1" style="stroke:#032030;" />
  <line x1="400" y1="125" x2="400" y2="150" stroke-width="1" style="stroke:#032030;" />
  <line x1="400" y1="150" x2="375" y2="150" stroke-width="1" style="stroke:#032030;" />
  <line x1="400" y1="150" x2="400" y2="175" stroke-width="1" style="stroke:#032030;" />
  <line x1="400" y1="175" x2="375" y2="175" stroke-width="1" style="stroke:#032030;" />
  <line x1="400" y1="175" x2="400" y2="200" stroke-width="1" style="stroke:#032030;" />
  <line x1="400" y1="200" x2="375" y2="200" stroke-width="1" style="stroke:#032030;" />
  <line x1="400" y1="200" x2="400" y2="225" stroke-width="1" style="stroke:#032030;" />
  <line x1="400" y1="225" x2="375" y2="225" stroke-width="1" style="stroke:#032030;" />
  <line x1="400" y1="225" x2="400" y2="250" stroke-width="1" style="stroke:#032030;" />
  <line x1="400" y1="250" x2="375" y2="250" stroke-width="1" style="stroke:#032030;" />
  <line x1="400" y1="250" x2="400" y2="275" stroke-width="1" style="stroke:#032030;" />
  <line x1="400" y1="275" x2="375" y2="275" stroke-width="1" style="stroke:#032030;" />
  <line x1="325" y1="25" x2="325" y2="50" stroke-width="1" style="stroke:#032030;" />
  <line x1="325" y1="50" x2="300" y2="50" stroke-width="1" style="stroke:#032030;" />
  <line x1="300" y1="25" x2="325" y2="25" stroke-width="1" style="stroke:#032030;" />
  <line x1="325" y1="50" x2="325" y2="75" stroke-width="1" style="stroke:#032030;" />
  <line x1="325" y1="75" x2="300" y2="75" stroke-width="1" style="stroke:#032030;" />
  <line x1="325" y1="75" x2="325" y2="100" stroke-width="1" style="stroke:#032030;" />
  <line x1="325" y1="100" x2="300" y2="100" stroke-width="1" style="stroke:#032030;" />
  <line x1="325" y1="100" x2="325" y2="125" stroke-width="1" style="stroke:#032030;" />
  <line x1="325" y1="125" x2="300" y2="125" stroke-width="1" style="stroke:#032030;" />
  <line x1="325" y1="125" x2="325" y2="150" stroke-width="1" style="stroke:#032030;" />
  <line x1="325" y1="150" x2="300" y2="150" stroke-width="1" style="stroke:#032030;" />
  <line x1="325" y1="150" x2="325" y2="175" stroke-width="1" style="stroke:#032030;" />
  <line x1="325" y1="175" x2="300" y2="175" stroke-width="1" style="stroke:#032030;" />
  <line x1="325" y1="175" x2="325" y2="200" stroke-width="1" style="stroke:#032030;" />
  <line x1="325" y1="200" x2="300" y2="200" stroke-width="1" style="stroke:#032030;" />
  <line x1="325" y1="200" x2="325" y2="225" stroke-width="1" style="stroke:#032030;" />
  <line x1="325" y1="225" x2="300" y2="225" stroke-width="1" style="stroke:#032030;" />
  <line x1="325" y1="225" x2="325" y2="250" stroke-width="1" style="stroke:#032030;" />
  <line x1="325" y1="250" x2="300" y2="250" stroke-width="1" style="stroke:#032030;" />
  <line x1="325" y1="250" x2="325" y2="275" stroke-width="1" style="stroke:#032030;" />
  <line x1="325" y1="275" x2="300" y2="275" stroke-width="1" style="stroke:#032030;" />
  <line x1="250" y1="25" x2="250" y2="50" stroke-width="1" style="stroke:#032030;" />
  <line x1="250" y1="50" x2="225" y2="50" stroke-width="1" style="stroke:#032030;" />
  <line x1="225" y1="25" x2="250" y2="25" stroke-width="1" style="stroke:#032030;" />
  <line x1="250" y1="50" x2="250" y2="75" stroke-width="1" style="stroke:#032030;" />
  <line x1="250" y1="75" x2="225" y2="75" stroke-width="1" style="stroke:#032030;" />
  <line x1="250" y1="75" x2="250" y2="100" stroke-width="1" style="stroke:#032030;" />
  <line x1="250" y1="100" x2="225" y2="100" stroke-width="1" style="stroke:#032030;" />
  <line x1="250" y1="100" x2="250" y2="125" stroke-width="1" style="stroke:#032030;" />
  <line x1="250" y1="125" x2="225" y2="125" stroke-width="1" style="stroke:#032030;" />
  <line x1="250" y1="125" x2="250" y2="150" stroke-width="1" style="stroke:#032030;" />
  <line x1="250" y1="150" x2="225" y2="150" stroke-width="1" style="stroke:#032030;" />
  <line x1="250" y1="150" x2="250" y2="175" stroke-width="1" style="stroke:#032030;" />
  <line x1="250" y1="175" x2="225" y2="175" stroke-width="1" style="stroke:#032030;" />
  <line x1="250" y1="175" x2="250" y2="200" stroke-width="1" style="stroke:#032030;" />
  <line x1="250" y1="200" x2="225" y2="200" stroke-width="1" style="stroke:#032030;" />
  <line x1="250" y1="200" x2="250" y2="225" stroke-width="1" style="stroke:#032030;" />
  <line x1="250" y1="225" x2="225" y2="225" stroke-width="1" style="stroke:#032030;" />
  <line x1="250" y1="225" x2="250" y2="250" stroke-width="1" style="stroke:#032030;" />
  <line x1="250" y1="250" x2="225" y2="250" stroke-width="1" style="stroke:#032030;" />
  <line x1="250" y1="250" x2="250" y2="275" stroke-width="1" style="stroke:#032030;" />
  <line x1="250" y1="275" x2="225" y2="275" stroke-width="1" style="stroke:#032030;" />
  <line x1="175" y1="25" x2="175" y2="50" stroke-width="1" style="stroke:#032030;" />
  <line x1="175" y1="50" x2="150" y2="50" stroke-width="1" style="stroke:#032030;" />
  <line x1="150" y1="25" x2="175" y2="25" stroke-width="1" style="stroke:#032030;" />
  <line x1="175" y1="50" x2="175" y2="75" stroke-width="1" style="stroke:#032030;" />
  <line x1="175" y1="75" x2="150" y2="75" stroke-width="1" style="stroke:#032030;" />
  <line x1="175" y1="75" x2="175" y2="100" stroke-width="1" style="stroke:#032030;" />
  <line x1="175" y1="100" x2="150" y2="100" stroke-width="1" style="stroke:#032030;" />
  <line x1="175" y1="100" x2="175" y2="125" stroke-width="1" style="stroke:#032030;" />
  <line x1="175" y1="125" x2="150" y2="125" stroke-width="1" style="stroke:#032030;" />
  <line x1="175" y1="125" x2="175" y2="150" stroke-width="1" style="stroke:#032030;" />
  <line x1="175" y1="150" x2="150" y2="150" stroke-width="1" style="stroke:#032030;" />
  <line x1="175" y1="150" x2="175" y2="175" stroke-width="1" style="stroke:#032030;" />
  <line x1="175" y1="175" x2="150" y2="175" stroke-width="1" style="stroke:#032030;" />
  <line x1="175" y1="175" x2="175" y2="200" stroke-width="1" style="stroke:#032030;" />
  <line x1="175" y1="200" x2="150" y2="200" stroke-width="1" style="stroke:#032030;" />
  <line x1="175" y1="200" x2="175" y2="225" stroke-width="1" style="stroke:#032030;" />
  <line x1="175" y1="225" x2="150" y2="225" stroke-width="1" style="stroke:#032030;" />
  <line x1="175" y1="225" x2="175" y2="250" stroke-width="1" style="stroke:#032030;" />
  <line x1="175" y1="250" x2="150" y2="250" stroke-width="1" style="stroke:#032030;" />
  <line x1="175" y1="250" x2="175" y2="275" stroke-width="1" style="stroke:#032030;" />
  <line x1="175" y1="275" x2="150" y2="275" stroke-width="1" style="stroke:#032030;" />
  <line x1="100" y1="25" x2="100" y2="50" stroke-width="1" style="stroke:#032030;" />
  <line x1="100" y1="50" x2="75" y2="50" stroke-width="1" style="stroke:#032030;" />
  <line x1="75" y1="25" x2="100" y2="25" stroke-width="1" style="stroke:#032030;" />
  <line x1="100" y1="50" x2="100" y2="75" stroke-width="1" style="stroke:#032030;" />
  <line x1="100" y1="75" x2="75" y2="75" stroke-width="1" style="stroke:#032030;" />
  <line x1="100" y1="75" x2="100" y2="100" stroke-width="1" style="stroke:#032030;" />
  <line x1="100" y1="100" x2="75" y2="100" stroke-width="1" style="stroke:#032030;" />
  <line x1="100" y1="100" x2="100" y2="125" stroke-width="1" style="stroke:#032030;" />
  <line x1="100" y1="125" x2="75" y2="125" stroke-width="1" style="stroke:#032030;" />
  <line x1="100" y1="125" x2="100" y2="150" stroke-width="1" style="stroke:#032030;" />
  <line x1="100" y1="150" x2="75" y2="150" stroke-width="1" style="stroke:#032030;" />
  <line x1="100" y1="150" x2="100" y2="175" stroke-width="1" style="stroke:#032030;" />
  <line x1="100" y1="175" x2="75" y2="175" stroke-width="1" style="stroke:#032030;" />
  <line x1="100" y1="175" x2="100" y2="200" stroke-width="1" style="stroke:#032030;" />
  <line x1="100" y1="200" x2="75" y2="200" stroke-width="1" style="stroke:#032030;" />
  <line x1="100" y1="200" x2="100" y2="225" stroke-width="1" style="stroke:#032030;" />
  <line x1="100" y1="225" x2="75" y2="225" stroke-width="1" style="stroke:#032030;" />
  <line x1="100" y1="225" x2="100" y2="250" stroke-width="1" style="stroke:#032030;" />
  <line x1="100" y1="250" x2="75" y2="250" stroke-width="1" style="stroke:#032030;" />
  <line x1="100" y1="250" x2="100" y2="275" stroke-width="1" style="stroke:#032030;" />
  <line x1="100" y1="275" x2="75" y2="275" stroke-width="1" style="stroke:#032030;" />
  <line x1="375" y1="25" x2="375" y2="50" stroke-width="1" style="stroke:#032030;" />
  <line x1="375" y1="50" x2="350" y2="50" stroke-width="1" style="stroke:#032030;" />
  <line x1="350" y1="25" x2="375" y2="25" stroke-width="1" style="stroke:#032030;" />
  <line x1="375" y1="50" x2="375" y2="75" stroke-width="1" style="stroke:#032030;" />
  <line x1="375" y1="75" x2="350" y2="75" stroke-width="1" style="stroke:#032030;" />
  <line x1="375" y1="75" x2="375" y2="100" stroke-width="1" style="stroke:#032030;" />
  <line x1="375" y1="100" x2="350" y2="100" stroke-width="1" style="stroke:#032030;" />
  <line x1="375" y1="100" x2="375" y2="125" stroke-width="1" style="stroke:#032030;" />
  <line x1="375" y1="125" x2="350" y2="125" stroke-width="1" style="stroke:#032030;" />
  <line x1="375" y1="125" x2="375" y2="150" stroke-width="1" style="stroke:#032030;" />
  <line x1="375" y1="150" x2="350" y2="150" stroke-width="1" style="stroke:#032030;" />
  <line x1="375" y1="150" x2="375" y2="175" stroke-width="1" style="stroke:#032030;" />
  <line x1="375" y1="175" x2="350" y2="175" stroke-width="1" style="stroke:#032030;" />
  <line x1="375" y1="175" x2="375" y2="200" stroke-width="1" style="stroke:#032030;" />
  <line x1="375" y1="200" x2="350" y2="200" stroke-width="1" style="stroke:#032030;" />
  <line x1="375" y1="200" x2="375" y2="225" stroke-width="1" style="stroke:#032030;" />
  <line x1="375" y1="225" x2="350" y2="225" stroke-width="1" style="stroke:#032030;" />
  <line x1="375" y1="225" x2="375" y2="250" stroke-width="1" style="stroke:#032030;" />
  <line x1="375" y1="250" x2="350" y2="250" stroke-width="1" style="stroke:#032030;" />
  <line x1="375" y1="250" x2="375" y2="275" stroke-width="1" style="stroke:#032030;" />
  <line x1="375" y1="275" x2="350" y2="275" stroke-width="1" style="stroke:#032030;" />
  <line x1="300" y1="25" x2="300" y2="50" stroke-width="1" style="stroke:#032030;" />
  <line x1="300" y1="50" x2="275" y2="50" stroke-width="1" style="stroke:#032030;" />
  <line x1="275" y1="25" x2="300" y2="25" stroke-width="1" style="stroke:#032030;" />
  <line x1="300" y1="50" x2="300" y2="75" stroke-width="1" style="stroke:#032030;" />
  <line x1="300" y1="75" x2="275" y2="75" stroke-width="1" style="stroke:#032030;" />
  <line x1="300" y1="75" x2="300" y2="100" stroke-width="1" style="stroke:#032030;" />
  <line x1="300" y1="100" x2="275" y2="100" stroke-width="1" style="stroke:#032030;" />
  <line x1="300" y1="100" x2="300" y2="125" stroke-width="1" style="stroke:#032030;" />
  <line x1="300" y1="125" x2="275" y2="125" stroke-width="1" style="stroke:#032030;" />
  <line x1="300" y1="125" x2="300" y2="150" stroke-width="1" style="stroke:#032030;" />
  <line x1="300" y1="150" x2="275" y2="150" stroke-width="1" style="stroke:#032030;" />
  <line x1="300" y1="150" x2="300" y2="175" stroke-width="1" style="stroke:#032030;" />
  <line x1="300" y1="175" x2="275" y2="175" stroke-width="1" style="stroke:#032030;" />
  <line x1="300" y1="175" x2="300" y2="200" stroke-width="1" style="stroke:#032030;" />
  <line x1="300" y1="200" x2="275" y2="200" stroke-width="1" style="stroke:#032030;" />
  <line x1="300" y1="200" x2="300" y2="225" stroke-width="1" style="stroke:#032030;" />
  <line x1="300" y1="225" x2="275" y2="225" stroke-width="1" style="stroke:#032030;" />
  <line x1="300" y1="225" x2="300" y2="250" stroke-width="1" style="stroke:#032030;" />
  <line x1="300" y1="250" x2="275" y2="250" stroke-width="1" style="stroke:#032030;" />
  <line x1="300" y1="250" x2="300" y2="275" stroke-width="1" style="stroke:#032030;" />
  <line x1="300" y1="275" x2="275" y2="275" stroke-width="1" style="stroke:#032030;" />
  <line x1="225" y1="25" x2="225" y2="50" stroke-width="1" style="stroke:#032030;" />
  <line x1="225" y1="50" x2="200" y2="50" stroke-width="1" style="stroke:#032030;" />
  <line x1="200" y1="25" x2="225" y2="25" stroke-width="1" style="stroke:#032030;" />
  <line x1="225" y1="50" x2="225" y2="75" stroke-width="1" style="stroke:#032030;" />
  <line x1="225" y1="75" x2="200" y2="75" stroke-width="1" style="stroke:#032030;" />
  <line x1="225" y1="75" x2="225" y2="100" stroke-width="1" style="stroke:#032030;" />
  <line x1="225" y1="100" x2="200" y2="100" stroke-width="1" style="stroke:#032030;" />
  <line x1="225" y1="100" x2="225" y2="125" stroke-width="1" style="stroke:#032030;" />
  <line x1="225" y1="125" x2="200" y2="125" stroke-width="1" style="stroke:#032030;" />
  <line x1="225" y1="125" x2="225" y2="150" stroke-width="1" style="stroke:#032030;" />
  <line x1="225" y1="150" x2="200" y2="150" stroke-width="1" style="stroke:#032030;" />
  <line x1="225" y1="150" x2="225" y2="175" stroke-width="1" style="stroke:#032030;" />
  <line x1="225" y1="175" x2="200" y2="175" stroke-width="1" style="stroke:#032030;" />
  <line x1="225" y1="175" x2="225" y2="200" stroke-width="1" style="stroke:#032030;" />
  <line x1="225" y1="200" x2="200" y2="200" stroke-width="1" style="stroke:#032030;" />
  <line x1="225" y1="200" x2="225" y2="225" stroke-width="1" style="stroke:#032030;" />
  <line x1="225" y1="225" x2="200" y2="225" stroke-width="1" style="stroke:#032030;" />
  <line x1="225" y1="225" x2="225" y2="250" stroke-width="1" style="stroke:#032030;" />
  <line x1="225" y1="250" x2="200" y2="250" stroke-width="1" style="stroke:#032030;" />
  <line x1="225" y1="250" x2="225" y2="275" stroke-width="1" style="stroke:#032030;" />
  <line x1="225" y1="275" x2="200" y2="275" stroke-width="1" style="stroke:#032030;" />
  <line x1="150" y1="25" x2="150" y2="50" stroke-width="1" style="stroke:#032030;" />
  <line x1="150" y1="50" x2="125" y2="50" stroke-width="1" style="stroke:#032030;" />
  <line x1="125" y1="25" x2="150" y2="25" stroke-width="1" style="stroke:#032030;" />
  <line x1="150" y1="50" x2="150" y2="75" stroke-width="1" style="stroke:#032030;" />
  <line x1="150" y1="75" x2="125" y2="75" stroke-width="1" style="stroke:#032030;" />
  <line x1="150" y1="75" x2="150" y2="100" stroke-width="1" style="stroke:#032030;" />
  <line x1="150" y1="100" x2="125" y2="100" stroke-width="1" style="stroke:#032030;" />
  <line x1="150" y1="100" x2="150" y2="125" stroke-width="1" style="stroke:#032030;" />
  <line x1="150" y1="125" x2="125" y2="125" stroke-width="1" style="stroke:#032030;" />
  <line x1="150" y1="125" x2="150" y2="150" stroke-width="1" style="stroke:#032030;" />
  <line x1="150" y1="150" x2="125" y2="150" stroke-width="1" style="stroke:#032030;" />
  <line x1="150" y1="150" x2="150" y2="175" stroke-width="1" style="stroke:#032030;" />
  <line x1="150" y1="175" x2="125" y2="175" stroke-width="1" style="stroke:#032030;" />
  <line x1="150" y1="175" x2="150" y2="200" stroke-width="1" style="stroke:#032030;" />
  <line x1="150" y1="200" x2="125" y2="200" stroke-width="1" style="stroke:#032030;" />
  <line x1="150" y1="200" x2="150" y2="225" stroke-width="1" style="stroke:#032030;" />
  <line x1="150" y1="225" x2="125" y2="225" stroke-width="1" style="stroke:#032030;" />
  <line x1="150" y1="225" x2="150" y2="250" stroke-width="1" style="stroke:#032030;" />
  <line x1="150" y1="250" x2="125" y2="250" stroke-width="1" style="stroke:#032030;" />
  <line x1="150" y1="250" x2="150" y2="275" stroke-width="1" style="stroke:#032030;" />
  <line x1="150" y1="275" x2="125" y2="275" stroke-width="1" style="stroke:#032030;" />
  <line x1="75" y1="25" x2="75" y2="50" stroke-width="1" style="stroke:#032030;" />
  <line x1="75" y1="50" x2="50" y2="50" stroke-width="1" style="stroke:#032030;" />
  <line x1="50" y1="25" x2="75" y2="25" stroke-width="1" style="stroke:#032030;" />
  <line x1="75" y1="50" x2="75" y2="75" stroke-width="1" style="stroke:#032030;" />
  <line x1="75" y1="75" x2="50" y2="75" stroke-width="1" style="stroke:#032030;" />
  <line x1="75" y1="75" x2="75" y2="100" stroke-width="1" style="stroke:#032030;" />
  <line x1="75" y1="100" x2="50" y2="100" stroke-width="1" style="stroke:#032030;" />
  <line x1="75" y1="100" x2="75" y2="125" stroke-width="1" style="stroke:#032030;" />
  <line x1="75" y1="125" x2="50" y2="125" stroke-width="1" style="stroke:#032030;" />
  <line x1="75" y1="125" x2="75" y2="150" stroke-width="1" style="stroke:#032030;" />
  <line x1="75" y1="150" x2="50" y2="150" stroke-width="1" style="stroke:#032030;" />
  <line x1="75" y1="150" x2="75" y2="175" stroke-width="1" style="stroke:#032030;" />
  <line x1="75" y1="175" x2="50" y2="175" stroke-width="1" style="stroke:#032030;" />
  <line x1="75" y1="175" x2="75" y2="200" stroke-width="1" style="stroke:#032030;" />
  <line x1="75" y1="200" x2="50" y2="200" stroke-width="1" style="stroke:#032030;" />
  <line x1="75" y1="200" x2="75" y2="225" stroke-width="1" style="stroke:#032030;" />
  <line x1="75" y1="225" x2="50" y2="225" stroke-width="1" style="stroke:#032030;" />
  <line x1="75" y1="225" x2="75" y2="250" stroke-width="1" style="stroke:#032030;" />
  <line x1="75" y1="250" x2="50" y2="250" stroke-width="1" style="stroke:#032030;" />
  <line x1="75" y1="250" x2="75" y2="275" stroke-width="1" style="stroke:#032030;" />
  <line x1="75" y1="275" x2="50" y2="275" stroke-width="1" style="stroke:#032030;" />
  <line x1="425" y1="25" x2="425" y2="50" stroke-width="1" style="stroke:#032030;" />
  <line x1="425" y1="50" x2="400" y2="50" stroke-width="1" style="stroke:#032030;" />
  <line x1="400" y1="25" x2="425" y2="25" stroke-width="1" style="stroke:#032030;" />
  <line x1="425" y1="50" x2="425" y2="75" stroke-width="1" style="stroke:#032030;" />
  <line x1="425" y1="75" x2="400" y2="75" stroke-width="1" style="stroke:#032030;" />
  <line x1="425" y1="75" x2="425" y2="100" stroke-width="1" style="stroke:#032030;" />
  <line x1="425" y1="100" x2="400" y2="100" stroke-width="1" style="stroke:#032030;" />
  <line x1="425" y1="100" x2="425" y2="125" stroke-width="1" style="stroke:#032030;" />
  <line x1="425" y1="125" x2="400" y2="125" stroke-width="1" style="stroke:#032030;" />
  <line x1="425" y1="125" x2="425" y2="150" stroke-width="1" style="stroke:#032030;" />
  <line x1="425" y1="150" x2="400" y2="150" stroke-width="1" style="stroke:#032030;" />
  <line x1="425" y1="150" x2="425" y2="175" stroke-width="1" style="stroke:#032030;" />
  <line x1="425" y1="175" x2="400" y2="175" stroke-width="1" style="stroke:#032030;" />
  <line x1="425" y1="175" x2="425" y2="200" stroke-width="1" style="stroke:#032030;" />
  <line x1="425" y1="200" x2="400" y2="200" stroke-width="1" style="stroke:#032030;" />
  <line x1="425" y1="200" x2="425" y2="225" stroke-width="1" style="stroke:#032030;" />
  <line x1="425" y1="225" x2="400" y2="225" stroke-width="1" style="stroke:#032030;" />
  <line x1="425" y1="225" x2="425" y2="250" stroke-width="1" style="stroke:#032030;" />
  <line x1="425" y1="250" x2="400" y2="250" stroke-width="1" style="stroke:#032030;" />
  <line x1="425" y1="250" x2="425" y2="275" stroke-width="1" style="stroke:#032030;" />
  <line x1="425" y1="275" x2="400" y2="275" stroke-width="1" style="stroke:#032030;" />
  <text x="37" y="18" color="#032030" text-anchor="middle" font-family="sans-serif">0</text>
  <text x="62" y="18" color="#032030" text-anchor="middle" font-family="sans-serif">1</text>
  <text x="87" y="18" color="#032030" text-anchor="middle" font-family="sans-serif">2</text>
  <text x="112" y="18" color="#032030" text-anchor="middle" font-family="sans-serif">3</text>
  <text x="137" y="18" color="#032030" text-anchor="middle" font-family="sans-serif">4</text>
  <text x="162" y="18" color="#032030" text-anchor="middle" font-family="sans-serif">5</text>
  <text x="187" y="18" color="#032030" text-anchor="middle" font-family="sans-serif">6</text>
  <text x="212" y="18" color="#032030" text-anchor="middle" font-family="sans-serif">7</text>
  <text x="237" y="18" color="#032030" text-anchor="middle" font-family="sans-serif">8</text>
  <text x="262" y="18" color="#032030" text-anchor="middle" font-family="sans-serif">9</text>
  <text x="287" y="18" color="#032030" text-anchor="middle" font-family="sans-serif">10</text>
  <text x="312" y="18" color="#032030" text-anchor="middle" font-family="sans-serif">11</text>
  <text x="337" y="18" color="#032030" text-anchor="middle" font-family="sans-serif">12</text>
  <text x="362" y="18" color="#032030" text-anchor="middle" font-family="sans-serif">13</text>
  <text x="387" y="18" color="#032030" text-anchor="middle" font-family="sans-serif">14</text>
  <text x="412" y="18" color="#032030" text-anchor="middle" font-family="sans-serif">15</text>
  <text x="12" y="43" color="#032030" text-anchor="middle" font-family="sans-serif">0</text>
  <text x="12" y="68" color="#032030" text-anchor="middle" font-family="sans-serif">1</text>
  <text x="12" y="93" color="#032030" text-anchor="middle" font-family="sans-serif">2</text>
  <text x="12" y="118" color="#032030" text-anchor="middle" font-family="sans-serif">3</text>
  <text x="12" y="143" color="#032030" text-anchor="middle" font-family="sans-serif">4</text>
  <text x="12" y="168" color="#032030" text-anchor="middle" font-family="sans-serif">5</text>
  <text x="12" y="193" color="#032030" text-anchor="middle" font-family="sans-serif">6</text>
  <text x="12" y="218" color="#032030" text-anchor="middle" font-family="sans-serif">7</text>
  <text x="12" y="243" color="#032030" text-anchor="middle" font-family="sans-serif">8</text>
  <text x="12" y="268" color="#032030" text-anchor="middle" font-family="sans-serif">9</text>
</svg>