<?xml version="1.0" encoding="utf-8"?>
<!DOCTYPE svg PUBLIC "-//W3C//DTD SVG 1.1//EN" "http://www.w3.org/Graphics/SVG/1.1/DTD/svg11.dtd">
<svg version="1.1" xmlns="http://www.w3.org/2000/svg" xmlns:xlink="http://www.w3.org/1999/xlink" xmlns:xml="http://www.w3.org/XML/1998/namespace" width="450" height="300" viewBox="0, 0, 450, 300">
  <rect x="25" y="25" width="400" height="250" style="fill:white;" />
  <path d="M25 25 L50 25 L75 25 L100 25 L125 25 L150 25 L175 25 L200 25 L225 25 L250 25 L275 25 L300 25 L325 25 L350 25 L375 25 L400 25 L425 25 M25 50 L50 50 L75 50 L100 50 L125 50 L150 50 L175 50 L200 50 L225 50 L250 50 L275 50 L300 50 L325 50 L350 50 L375 50 L400 50 L425 50 M25 75 L50 75 L75 75 L100 75 L125 75 L150 75 L175 75 L200 75 L225 75 L250 75 L275 75 L300 75 L325 75 L350 75 L375 75 L400 75 L425 75 M25 100 L50 100 L75 100 L100 100 L125 100 L150 100 L175 100 L200 100 L225 100 L250 100 L275 100 L300 100 L325 100 L350 100 L375 100 L400 100 L425 100 M25 125 L50 125 L75 125 L100 125 L125 125 L150 125 L175 125 L200 125 L225 125 L250 125 L275 125 L300 125 L325 125 L350 125 L375 125 L400 125 L425 125 M25 150 L50 150 L75 150 L100 150 L125 150 L150 150 L175 150 L200 150 L225 150 L250 150 L275 150 L300 150 L325 150 L350 150 L375 150 L400 150 L425 150 M25 175 L50 175 L75 175 L100 175 L125 175 L150 175 L175 175 L200 175 L225 175 L250 175 L275 175 L300 175 L325 175 L350 175 L375 175 L400 175 L425 175 M25 200 L50 200 L75 200 L100 200 L125 200 L150 200 L175 200 L200 200 L225 200 L250 200 L275 200 L300 200 L325 200 L350 200 L375 200 L400 200 L425 200 M25 225 L50 225 L75 225 L100 225 L125 225 L150 225 L175 225 L200 225 L225 225 L250 225 L275 225 L300 225 L325 225 L350 225 L375 225 L400 225 L425 225 M25 250 L50 250 L75 250 L100 250 L125 250 L150 250 L175 250 L200 250 L225 250 L250 250 L275 250 L300 250 L325 250 L350 250 L375 250 L400 250 L425 250 M25 275 L50 275 L75 275 L100 275 L125 275 L150 275 L175 275 L200 275 L225 275 L250 275 L275 275 L300 275 L325 275 L350 275 L375 275 L400 275 L425 275 M25 25 L25 50 L25 75 L25 100 L25 125 L25 150 L25 175 L25 200 L25 225 L25 250 L25 275 M50 25 L50 50 L50 75 L50 100 L50 125 L50 150 L50 175 L50 200 L50 225 L50 250 L50 275 M75 25 L75 50 L75 75 L75 100 L75 125 L75 150 L75 175 L75 200 L75 225 L75 250 L75 275 M100 25 L100 50 L100 75 L100 100 L100 125 L100 150 L100 175 L100 200 L100 225 L100 250 L100 275 M125 25 L125 50 L125 75 L125 100 L125 125 L125 150 L125 175 L125 200 L125 225 L125 250 L125 275 M150 25 L150 50 L150 75 L150 100 L150 125 L150 150 L150 175 L150 200 L150 225 L150 250 L150 275 M175 25 L175 50 L175 75 L175 100 L175 125 L175 150 L175 175 L175 200 L175 225 L175 250 L175 275 M200 25 L200 50 L200 75 L200 100 L200 125 L200 150 L200 175 L200 200 L200 225 L200 250 L200 275 M225 25 L225 50 L225 75 L225 100 L225 125 L225 150 L225 175 L225 200 L225 225 L225 250 L225 275 M250 25 L250 50 L250 75 L250 100 L250 125 L250 150 L250 175 L250 200 L250 225 L250 250 L250 275 M275 25 L275 50 L275 75 L275 100 L275 125 L275 150 L275 175 L275 200 L275 225 L275 250 L275 275 M300 25 L300 50 L300 75 L300 100 L300 125 L300 150 L300 175 L300 200 L300 225 L300 250 L300 275 M325 25 L325 50 L325 75 L325 100 L325 125 L325 150 L325 175 L325 200 L325 225 L325 250 L325 275 M350 25 L350 50 L350 75 L350 100 L350 125 L350 150 L350 175 L350 200 L350 225 L350 250 L350 275 M375 25 L375 50 L375 75 L375 100 L375 125 L375 150 L375 175 L375 200 L375 225 L375 250 L375 275 M400 25 L400 50 L400 75 L400 100 L400 125 L400 150 L400 175 L400 200 L400 225 L400 250 L400 275 M425 25 L425 50 L425 75 L425 100 L425 125 L425 150 L425 175 L425 200 L425 225 L425 250 L425 275" stroke-width="1" style="stroke:#032030;" />
</svg>